<svg xmlns="http://www.w3.org/2000/svg" xmlns:xlink="http://www.w3.org/1999/xlink" viewBox="0 0 303.11 84.6"><defs><style>.cls-1,.cls-10,.cls-100,.cls-101,.cls-102,.cls-103,.cls-104,.cls-105,.cls-106,.cls-107,.cls-108,.cls-109,.cls-11,.cls-110,.cls-111,.cls-112,.cls-113,.cls-114,.cls-115,.cls-116,.cls-117,.cls-118,.cls-119,.cls-12,.cls-120,.cls-121,.cls-122,.cls-123,.cls-124,.cls-125,.cls-126,.cls-127,.cls-128,.cls-129,.cls-13,.cls-130,.cls-131,.cls-132,.cls-133,.cls-134,.cls-135,.cls-136,.cls-137,.cls-138,.cls-139,.cls-14,.cls-140,.cls-141,.cls-142,.cls-143,.cls-144,.cls-145,.cls-146,.cls-147,.cls-148,.cls-149,.cls-15,.cls-150,.cls-151,.cls-152,.cls-153,.cls-154,.cls-155,.cls-156,.cls-16,.cls-17,.cls-18,.cls-19,.cls-2,.cls-20,.cls-21,.cls-22,.cls-23,.cls-24,.cls-25,.cls-26,.cls-27,.cls-28,.cls-29,.cls-3,.cls-30,.cls-31,.cls-32,.cls-33,.cls-34,.cls-35,.cls-36,.cls-37,.cls-38,.cls-39,.cls-4,.cls-40,.cls-41,.cls-42,.cls-43,.cls-44,.cls-45,.cls-46,.cls-47,.cls-48,.cls-49,.cls-5,.cls-50,.cls-51,.cls-52,.cls-53,.cls-54,.cls-55,.cls-56,.cls-57,.cls-58,.cls-59,.cls-6,.cls-60,.cls-61,.cls-62,.cls-63,.cls-64,.cls-65,.cls-66,.cls-67,.cls-68,.cls-69,.cls-7,.cls-70,.cls-71,.cls-72,.cls-73,.cls-74,.cls-75,.cls-76,.cls-77,.cls-78,.cls-79,.cls-8,.cls-80,.cls-81,.cls-82,.cls-83,.cls-84,.cls-85,.cls-86,.cls-87,.cls-88,.cls-89,.cls-9,.cls-90,.cls-91,.cls-92,.cls-93,.cls-94,.cls-95,.cls-96,.cls-97,.cls-98,.cls-99{fill-rule:evenodd;}.cls-1{fill:url(#Gradiente_sem_nome_15);}.cls-2{fill:url(#Gradiente_sem_nome_15-2);}.cls-3{fill:url(#Gradiente_sem_nome_15-3);}.cls-4{fill:url(#Gradiente_sem_nome_15-4);}.cls-5{fill:url(#Gradiente_sem_nome_15-5);}.cls-6{fill:url(#Gradiente_sem_nome_15-6);}.cls-7{fill:url(#Gradiente_sem_nome_15-7);}.cls-8{fill:url(#Gradiente_sem_nome_15-8);}.cls-9{fill:url(#Gradiente_sem_nome_15-9);}.cls-10{fill:url(#Gradiente_sem_nome_15-10);}.cls-11{fill:url(#Gradiente_sem_nome_15-11);}.cls-12{fill:url(#Gradiente_sem_nome_15-12);}.cls-13{fill:url(#Gradiente_sem_nome_15-13);}.cls-14{fill:url(#Gradiente_sem_nome_15-14);}.cls-15{fill:url(#Gradiente_sem_nome_15-15);}.cls-16{fill:url(#Gradiente_sem_nome_15-16);}.cls-17{fill:url(#Gradiente_sem_nome_15-17);}.cls-18{fill:url(#Gradiente_sem_nome_15-18);}.cls-19{fill:url(#Gradiente_sem_nome_15-19);}.cls-20{fill:url(#Gradiente_sem_nome_15-20);}.cls-21{fill:url(#Gradiente_sem_nome_15-21);}.cls-22{fill:url(#Gradiente_sem_nome_15-22);}.cls-23{fill:url(#Gradiente_sem_nome_15-23);}.cls-24{fill:url(#Gradiente_sem_nome_15-24);}.cls-25{fill:url(#Gradiente_sem_nome_15-25);}.cls-26{fill:url(#Gradiente_sem_nome_15-26);}.cls-27{fill:url(#Gradiente_sem_nome_15-27);}.cls-28{fill:url(#Gradiente_sem_nome_15-28);}.cls-29{fill:url(#Gradiente_sem_nome_15-29);}.cls-30{fill:url(#Gradiente_sem_nome_15-30);}.cls-31{fill:url(#Gradiente_sem_nome_15-31);}.cls-32{fill:url(#Gradiente_sem_nome_15-32);}.cls-33{fill:url(#Gradiente_sem_nome_15-33);}.cls-34{fill:url(#Gradiente_sem_nome_15-34);}.cls-35{fill:url(#Gradiente_sem_nome_15-35);}.cls-36{fill:url(#Gradiente_sem_nome_15-36);}.cls-37{fill:url(#Gradiente_sem_nome_15-37);}.cls-38{fill:url(#Gradiente_sem_nome_15-38);}.cls-39{fill:url(#Gradiente_sem_nome_15-39);}.cls-40{fill:url(#Gradiente_sem_nome_15-40);}.cls-41{fill:url(#Gradiente_sem_nome_15-41);}.cls-42{fill:url(#Gradiente_sem_nome_15-42);}.cls-43{fill:url(#Gradiente_sem_nome_15-43);}.cls-44{fill:url(#Gradiente_sem_nome_15-44);}.cls-45{fill:url(#Gradiente_sem_nome_15-45);}.cls-46{fill:url(#Gradiente_sem_nome_15-46);}.cls-47{fill:url(#Gradiente_sem_nome_15-47);}.cls-48{fill:url(#Gradiente_sem_nome_15-48);}.cls-49{fill:url(#Gradiente_sem_nome_15-49);}.cls-50{fill:url(#Gradiente_sem_nome_15-50);}.cls-51{fill:url(#Gradiente_sem_nome_15-51);}.cls-52{fill:url(#Gradiente_sem_nome_15-52);}.cls-53{fill:url(#Gradiente_sem_nome_15-53);}.cls-54{fill:url(#Gradiente_sem_nome_15-54);}.cls-55{fill:url(#Gradiente_sem_nome_15-55);}.cls-56{fill:url(#Gradiente_sem_nome_15-56);}.cls-57{fill:url(#Gradiente_sem_nome_15-57);}.cls-58{fill:url(#Gradiente_sem_nome_15-58);}.cls-59{fill:url(#Gradiente_sem_nome_15-59);}.cls-60{fill:url(#Gradiente_sem_nome_15-60);}.cls-61{fill:url(#Gradiente_sem_nome_15-61);}.cls-62{fill:url(#Gradiente_sem_nome_15-62);}.cls-63{fill:url(#Gradiente_sem_nome_15-63);}.cls-64{fill:url(#Gradiente_sem_nome_15-64);}.cls-65{fill:url(#Gradiente_sem_nome_15-65);}.cls-66{fill:url(#Gradiente_sem_nome_15-66);}.cls-67{fill:url(#Gradiente_sem_nome_15-67);}.cls-68{fill:url(#Gradiente_sem_nome_15-68);}.cls-69{fill:url(#Gradiente_sem_nome_15-69);}.cls-70{fill:url(#Gradiente_sem_nome_15-70);}.cls-71{fill:url(#Gradiente_sem_nome_15-71);}.cls-72{fill:url(#Gradiente_sem_nome_15-72);}.cls-73{fill:url(#Gradiente_sem_nome_15-73);}.cls-74{fill:url(#Gradiente_sem_nome_15-74);}.cls-75{fill:url(#Gradiente_sem_nome_15-75);}.cls-76{fill:url(#Gradiente_sem_nome_15-76);}.cls-77{fill:url(#Gradiente_sem_nome_15-77);}.cls-78{fill:url(#Gradiente_sem_nome_15-78);}.cls-79{fill:url(#Gradiente_sem_nome_15-79);}.cls-80{fill:url(#Gradiente_sem_nome_15-80);}.cls-81{fill:url(#Gradiente_sem_nome_15-81);}.cls-82{fill:url(#Gradiente_sem_nome_15-82);}.cls-83{fill:url(#Gradiente_sem_nome_15-83);}.cls-84{fill:url(#Gradiente_sem_nome_15-84);}.cls-85{fill:url(#Gradiente_sem_nome_15-85);}.cls-86{fill:url(#Gradiente_sem_nome_15-86);}.cls-87{fill:url(#Gradiente_sem_nome_15-87);}.cls-88{fill:url(#Gradiente_sem_nome_15-88);}.cls-89{fill:url(#Gradiente_sem_nome_15-89);}.cls-90{fill:url(#Gradiente_sem_nome_15-90);}.cls-91{fill:url(#Gradiente_sem_nome_15-91);}.cls-92{fill:url(#Gradiente_sem_nome_15-92);}.cls-93{fill:url(#Gradiente_sem_nome_15-93);}.cls-94{fill:url(#Gradiente_sem_nome_15-94);}.cls-95{fill:url(#Gradiente_sem_nome_15-95);}.cls-96{fill:url(#Gradiente_sem_nome_15-96);}.cls-97{fill:url(#Gradiente_sem_nome_15-97);}.cls-98{fill:url(#Gradiente_sem_nome_15-98);}.cls-99{fill:url(#Gradiente_sem_nome_15-99);}.cls-100{fill:url(#Gradiente_sem_nome_15-100);}.cls-101{fill:url(#Gradiente_sem_nome_15-101);}.cls-102{fill:url(#Gradiente_sem_nome_15-102);}.cls-103{fill:url(#Gradiente_sem_nome_15-103);}.cls-104{fill:url(#Gradiente_sem_nome_15-104);}.cls-105{fill:url(#Gradiente_sem_nome_15-105);}.cls-106{fill:url(#Gradiente_sem_nome_15-106);}.cls-107{fill:url(#Gradiente_sem_nome_15-107);}.cls-108{fill:url(#Gradiente_sem_nome_15-108);}.cls-109{fill:url(#Gradiente_sem_nome_15-109);}.cls-110{fill:url(#Gradiente_sem_nome_15-110);}.cls-111{fill:url(#Gradiente_sem_nome_15-111);}.cls-112{fill:url(#Gradiente_sem_nome_15-112);}.cls-113{fill:url(#Gradiente_sem_nome_15-113);}.cls-114{fill:url(#Gradiente_sem_nome_15-114);}.cls-115{fill:url(#Gradiente_sem_nome_15-115);}.cls-116{fill:url(#Gradiente_sem_nome_15-116);}.cls-117{fill:url(#Gradiente_sem_nome_15-117);}.cls-118{fill:url(#Gradiente_sem_nome_15-118);}.cls-119{fill:url(#Gradiente_sem_nome_15-119);}.cls-120{fill:url(#Gradiente_sem_nome_15-120);}.cls-121{fill:url(#Gradiente_sem_nome_15-121);}.cls-122{fill:url(#Gradiente_sem_nome_15-122);}.cls-123{fill:url(#Gradiente_sem_nome_15-123);}.cls-124{fill:url(#Gradiente_sem_nome_15-124);}.cls-125{fill:url(#Gradiente_sem_nome_15-125);}.cls-126{fill:url(#Gradiente_sem_nome_15-126);}.cls-127{fill:url(#Gradiente_sem_nome_15-127);}.cls-128{fill:url(#Gradiente_sem_nome_15-128);}.cls-129{fill:url(#Gradiente_sem_nome_15-129);}.cls-130{fill:url(#Gradiente_sem_nome_15-130);}.cls-131{fill:url(#Gradiente_sem_nome_15-131);}.cls-132{fill:url(#Gradiente_sem_nome_15-132);}.cls-133{fill:url(#Gradiente_sem_nome_15-133);}.cls-134{fill:url(#Gradiente_sem_nome_15-134);}.cls-135{fill:url(#Gradiente_sem_nome_15-135);}.cls-136{fill:url(#Gradiente_sem_nome_15-136);}.cls-137{fill:url(#Gradiente_sem_nome_15-137);}.cls-138{fill:url(#Gradiente_sem_nome_15-138);}.cls-139{fill:url(#Gradiente_sem_nome_15-139);}.cls-140{fill:url(#Gradiente_sem_nome_15-140);}.cls-141{fill:url(#Gradiente_sem_nome_15-141);}.cls-142{fill:url(#Gradiente_sem_nome_15-142);}.cls-143{fill:url(#Gradiente_sem_nome_15-143);}.cls-144{fill:url(#Gradiente_sem_nome_15-144);}.cls-145{fill:url(#Gradiente_sem_nome_15-145);}.cls-146{fill:url(#Gradiente_sem_nome_15-146);}.cls-147{fill:url(#Gradiente_sem_nome_15-147);}.cls-148{fill:url(#Gradiente_sem_nome_15-148);}.cls-149{fill:url(#Gradiente_sem_nome_15-149);}.cls-150{fill:url(#Gradiente_sem_nome_15-150);}.cls-151{fill:url(#Gradiente_sem_nome_15-151);}.cls-152{fill:url(#Gradiente_sem_nome_15-152);}.cls-153{fill:url(#Gradiente_sem_nome_15-153);}.cls-154{fill:url(#Gradiente_sem_nome_15-154);}.cls-155{fill:url(#Gradiente_sem_nome_15-155);}.cls-156{fill:url(#Gradiente_sem_nome_15-156);}</style><linearGradient id="Gradiente_sem_nome_15" x1="3.11" y1="32.76" x2="3.91" y2="32.76" gradientUnits="userSpaceOnUse"><stop offset="0" stop-color="#783699"/><stop offset="1" stop-color="#5f9ac2"/></linearGradient><linearGradient id="Gradiente_sem_nome_15-2" x1="4.71" y1="31.85" x2="5.41" y2="31.85" xlink:href="#Gradiente_sem_nome_15"/><linearGradient id="Gradiente_sem_nome_15-3" x1="5.51" y1="35.21" x2="6.41" y2="35.21" xlink:href="#Gradiente_sem_nome_15"/><linearGradient id="Gradiente_sem_nome_15-4" x1="8.61" y1="52.03" x2="9.41" y2="52.03" xlink:href="#Gradiente_sem_nome_15"/><linearGradient id="Gradiente_sem_nome_15-5" x1="5.94" y1="32.93" x2="6.62" y2="32.93" xlink:href="#Gradiente_sem_nome_15"/><linearGradient id="Gradiente_sem_nome_15-6" x1="9.51" y1="52.95" x2="10.01" y2="52.95" xlink:href="#Gradiente_sem_nome_15"/><linearGradient id="Gradiente_sem_nome_15-7" x1="9.72" y1="39.42" x2="10.51" y2="39.42" xlink:href="#Gradiente_sem_nome_15"/><linearGradient id="Gradiente_sem_nome_15-8" x1="13.41" y1="55.95" x2="17.81" y2="55.95" xlink:href="#Gradiente_sem_nome_15"/><linearGradient id="Gradiente_sem_nome_15-9" x1="10.71" y1="40.25" x2="11.37" y2="40.25" xlink:href="#Gradiente_sem_nome_15"/><linearGradient id="Gradiente_sem_nome_15-10" x1="13.41" y1="36.31" x2="14.31" y2="36.31" xlink:href="#Gradiente_sem_nome_15"/><linearGradient id="Gradiente_sem_nome_15-11" x1="23.01" y1="62.2" x2="23.91" y2="62.2" xlink:href="#Gradiente_sem_nome_15"/><linearGradient id="Gradiente_sem_nome_15-12" x1="15.71" y1="38.17" x2="16.61" y2="38.17" xlink:href="#Gradiente_sem_nome_15"/><linearGradient id="Gradiente_sem_nome_15-13" x1="23.71" y1="51.01" x2="24.81" y2="51.01" xlink:href="#Gradiente_sem_nome_15"/><linearGradient id="Gradiente_sem_nome_15-14" x1="19.13" y1="36.45" x2="19.68" y2="36.45" xlink:href="#Gradiente_sem_nome_15"/><linearGradient id="Gradiente_sem_nome_15-15" x1="22.59" y1="38.89" x2="23.71" y2="38.89" xlink:href="#Gradiente_sem_nome_15"/><linearGradient id="Gradiente_sem_nome_15-16" x1="30.14" y1="59.65" x2="30.97" y2="59.65" xlink:href="#Gradiente_sem_nome_15"/><linearGradient id="Gradiente_sem_nome_15-17" x1="30.67" y1="56.3" x2="31.51" y2="56.3" xlink:href="#Gradiente_sem_nome_15"/><linearGradient id="Gradiente_sem_nome_15-18" x1="35.61" y1="66.76" x2="36.61" y2="66.76" xlink:href="#Gradiente_sem_nome_15"/><linearGradient id="Gradiente_sem_nome_15-19" x1="22.91" y1="30.15" x2="23.5" y2="30.15" xlink:href="#Gradiente_sem_nome_15"/><linearGradient id="Gradiente_sem_nome_15-20" x1="24.11" y1="34.81" x2="24.72" y2="34.81" xlink:href="#Gradiente_sem_nome_15"/><linearGradient id="Gradiente_sem_nome_15-21" x1="24.41" y1="31.05" x2="27.21" y2="31.05" xlink:href="#Gradiente_sem_nome_15"/><linearGradient id="Gradiente_sem_nome_15-22" x1="35.51" y1="58.4" x2="36.48" y2="58.4" xlink:href="#Gradiente_sem_nome_15"/><linearGradient id="Gradiente_sem_nome_15-23" x1="24.51" y1="16.22" x2="24.91" y2="16.22" xlink:href="#Gradiente_sem_nome_15"/><linearGradient id="Gradiente_sem_nome_15-24" x1="24.81" y1="14.91" x2="25.39" y2="14.91" xlink:href="#Gradiente_sem_nome_15"/><linearGradient id="Gradiente_sem_nome_15-25" x1="25.11" y1="15.65" x2="25.61" y2="15.65" xlink:href="#Gradiente_sem_nome_15"/><linearGradient id="Gradiente_sem_nome_15-26" x1="37.08" y1="58.9" x2="38.1" y2="58.9" xlink:href="#Gradiente_sem_nome_15"/><linearGradient id="Gradiente_sem_nome_15-27" x1="26.01" y1="5.17" x2="27.81" y2="5.17" xlink:href="#Gradiente_sem_nome_15"/><linearGradient id="Gradiente_sem_nome_15-28" x1="39.89" y1="59.74" x2="40.62" y2="59.74" xlink:href="#Gradiente_sem_nome_15"/><linearGradient id="Gradiente_sem_nome_15-29" x1="26.91" y1="21.79" x2="27.74" y2="21.79" xlink:href="#Gradiente_sem_nome_15"/><linearGradient id="Gradiente_sem_nome_15-30" x1="30.6" y1="33.48" x2="32.01" y2="33.48" xlink:href="#Gradiente_sem_nome_15"/><linearGradient id="Gradiente_sem_nome_15-31" x1="27.37" y1="12" x2="27.71" y2="12" xlink:href="#Gradiente_sem_nome_15"/><linearGradient id="Gradiente_sem_nome_15-32" x1="42.31" y1="60.74" x2="44.31" y2="60.74" xlink:href="#Gradiente_sem_nome_15"/><linearGradient id="Gradiente_sem_nome_15-33" x1="30.21" y1="23.29" x2="30.91" y2="23.29" xlink:href="#Gradiente_sem_nome_15"/><linearGradient id="Gradiente_sem_nome_15-34" x1="44.42" y1="61.4" x2="45.61" y2="61.4" xlink:href="#Gradiente_sem_nome_15"/><linearGradient id="Gradiente_sem_nome_15-35" x1="45.61" y1="61.98" x2="46.71" y2="61.98" xlink:href="#Gradiente_sem_nome_15"/><linearGradient id="Gradiente_sem_nome_15-36" x1="31.71" y1="16.6" x2="32.52" y2="16.6" xlink:href="#Gradiente_sem_nome_15"/><linearGradient id="Gradiente_sem_nome_15-37" x1="48.81" y1="63" x2="51.11" y2="63" xlink:href="#Gradiente_sem_nome_15"/><linearGradient id="Gradiente_sem_nome_15-38" x1="42.41" y1="38.77" x2="43.51" y2="38.77" xlink:href="#Gradiente_sem_nome_15"/><linearGradient id="Gradiente_sem_nome_15-39" x1="38.21" y1="26.84" x2="38.81" y2="26.84" xlink:href="#Gradiente_sem_nome_15"/><linearGradient id="Gradiente_sem_nome_15-40" x1="46.11" y1="30.21" x2="47.31" y2="30.21" xlink:href="#Gradiente_sem_nome_15"/><linearGradient id="Gradiente_sem_nome_15-41" x1="43.31" y1="10.99" x2="43.88" y2="10.99" xlink:href="#Gradiente_sem_nome_15"/><linearGradient id="Gradiente_sem_nome_15-42" x1="40.31" y1="1.51" x2="41.41" y2="1.51" xlink:href="#Gradiente_sem_nome_15"/><linearGradient id="Gradiente_sem_nome_15-43" x1="54.91" y1="37.05" x2="55.49" y2="37.05" xlink:href="#Gradiente_sem_nome_15"/><linearGradient id="Gradiente_sem_nome_15-44" x1="45.91" y1="8.15" x2="47.71" y2="8.15" xlink:href="#Gradiente_sem_nome_15"/><linearGradient id="Gradiente_sem_nome_15-45" x1="57.11" y1="33.18" x2="57.66" y2="33.18" xlink:href="#Gradiente_sem_nome_15"/><linearGradient id="Gradiente_sem_nome_15-46" x1="51" y1="8.81" x2="52.21" y2="8.81" xlink:href="#Gradiente_sem_nome_15"/><linearGradient id="Gradiente_sem_nome_15-47" x1="51.01" y1="2.88" x2="51.91" y2="2.88" xlink:href="#Gradiente_sem_nome_15"/><linearGradient id="Gradiente_sem_nome_15-48" x1="55.01" y1="11.81" x2="55.91" y2="11.81" xlink:href="#Gradiente_sem_nome_15"/><linearGradient id="Gradiente_sem_nome_15-49" x1="58.11" y1="13.5" x2="58.73" y2="13.5" xlink:href="#Gradiente_sem_nome_15"/><linearGradient id="Gradiente_sem_nome_15-50" x1="59.51" y1="13.44" x2="60.22" y2="13.44" xlink:href="#Gradiente_sem_nome_15"/><linearGradient id="Gradiente_sem_nome_15-51" x1="69.91" y1="36.7" x2="71.01" y2="36.7" xlink:href="#Gradiente_sem_nome_15"/><linearGradient id="Gradiente_sem_nome_15-52" x1="71.11" y1="36.63" x2="72.11" y2="36.63" xlink:href="#Gradiente_sem_nome_15"/><linearGradient id="Gradiente_sem_nome_15-53" x1="72.91" y1="39.51" x2="73.71" y2="39.51" xlink:href="#Gradiente_sem_nome_15"/><linearGradient id="Gradiente_sem_nome_15-54" x1="64.11" y1="15.72" x2="64.51" y2="15.72" xlink:href="#Gradiente_sem_nome_15"/><linearGradient id="Gradiente_sem_nome_15-55" x1="63.61" y1="14.27" x2="65.01" y2="14.27" xlink:href="#Gradiente_sem_nome_15"/><linearGradient id="Gradiente_sem_nome_15-56" x1="64.78" y1="15.92" x2="65.71" y2="15.92" xlink:href="#Gradiente_sem_nome_15"/><linearGradient id="Gradiente_sem_nome_15-57" x1="66.01" y1="18.55" x2="66.76" y2="18.55" xlink:href="#Gradiente_sem_nome_15"/><linearGradient id="Gradiente_sem_nome_15-58" x1="75.61" y1="39.92" x2="76.51" y2="39.92" xlink:href="#Gradiente_sem_nome_15"/><linearGradient id="Gradiente_sem_nome_15-59" x1="79.87" y1="41.22" x2="82.31" y2="41.22" xlink:href="#Gradiente_sem_nome_15"/><linearGradient id="Gradiente_sem_nome_15-60" x1="71.5" y1="18.11" x2="72.04" y2="18.11" xlink:href="#Gradiente_sem_nome_15"/><linearGradient id="Gradiente_sem_nome_15-61" x1="72.01" y1="18.06" x2="72.91" y2="18.06" xlink:href="#Gradiente_sem_nome_15"/><linearGradient id="Gradiente_sem_nome_15-62" x1="84.31" y1="41.76" x2="85.01" y2="41.76" xlink:href="#Gradiente_sem_nome_15"/><linearGradient id="Gradiente_sem_nome_15-63" x1="77.39" y1="22.57" x2="78.11" y2="22.57" xlink:href="#Gradiente_sem_nome_15"/><linearGradient id="Gradiente_sem_nome_15-64" x1="91.71" y1="11.1" x2="92.61" y2="11.1" xlink:href="#Gradiente_sem_nome_15"/><linearGradient id="Gradiente_sem_nome_15-65" x1="100.81" y1="12.68" x2="102.91" y2="12.68" xlink:href="#Gradiente_sem_nome_15"/><linearGradient id="Gradiente_sem_nome_15-66" x1="104.31" y1="13.32" x2="105.21" y2="13.32" xlink:href="#Gradiente_sem_nome_15"/><linearGradient id="Gradiente_sem_nome_15-67" x1="105.48" y1="13.45" x2="106.31" y2="13.45" xlink:href="#Gradiente_sem_nome_15"/><linearGradient id="Gradiente_sem_nome_15-68" x1="106.78" y1="14.6" x2="108.01" y2="14.6" xlink:href="#Gradiente_sem_nome_15"/><linearGradient id="Gradiente_sem_nome_15-69" x1="108.3" y1="14.45" x2="108.81" y2="14.45" xlink:href="#Gradiente_sem_nome_15"/><linearGradient id="Gradiente_sem_nome_15-70" x1="108.81" y1="14.6" x2="109.33" y2="14.6" xlink:href="#Gradiente_sem_nome_15"/><linearGradient id="Gradiente_sem_nome_15-71" x1="109.5" y1="13.68" x2="110.31" y2="13.68" xlink:href="#Gradiente_sem_nome_15"/><linearGradient id="Gradiente_sem_nome_15-72" x1="114.45" y1="14.95" x2="115.31" y2="14.95" xlink:href="#Gradiente_sem_nome_15"/><linearGradient id="Gradiente_sem_nome_15-73" x1="117.51" y1="15.48" x2="118.21" y2="15.48" xlink:href="#Gradiente_sem_nome_15"/><linearGradient id="Gradiente_sem_nome_15-74" x1="119.21" y1="15.92" x2="120.38" y2="15.92" xlink:href="#Gradiente_sem_nome_15"/><linearGradient id="Gradiente_sem_nome_15-75" x1="120.61" y1="13.94" x2="121.33" y2="13.94" xlink:href="#Gradiente_sem_nome_15"/><linearGradient id="Gradiente_sem_nome_15-76" x1="121.88" y1="16.4" x2="124.1" y2="16.4" xlink:href="#Gradiente_sem_nome_15"/><linearGradient id="Gradiente_sem_nome_15-77" x1="122.71" y1="15.04" x2="123.91" y2="15.04" xlink:href="#Gradiente_sem_nome_15"/><linearGradient id="Gradiente_sem_nome_15-78" x1="124.71" y1="14.38" x2="125.31" y2="14.38" xlink:href="#Gradiente_sem_nome_15"/><linearGradient id="Gradiente_sem_nome_15-79" x1="127.41" y1="14.85" x2="127.9" y2="14.85" xlink:href="#Gradiente_sem_nome_15"/><linearGradient id="Gradiente_sem_nome_15-80" x1="158.71" y1="22.1" x2="160.11" y2="22.1" xlink:href="#Gradiente_sem_nome_15"/><linearGradient id="Gradiente_sem_nome_15-81" x1="167.81" y1="20.91" x2="168.45" y2="20.91" xlink:href="#Gradiente_sem_nome_15"/><linearGradient id="Gradiente_sem_nome_15-82" x1="177.11" y1="23.14" x2="178.21" y2="23.14" xlink:href="#Gradiente_sem_nome_15"/><linearGradient id="Gradiente_sem_nome_15-83" x1="181.61" y1="23.14" x2="183.11" y2="23.14" xlink:href="#Gradiente_sem_nome_15"/><linearGradient id="Gradiente_sem_nome_15-84" x1="190.71" y1="23.28" x2="191.73" y2="23.28" xlink:href="#Gradiente_sem_nome_15"/><linearGradient id="Gradiente_sem_nome_15-85" x1="199.81" y1="25.83" x2="200.41" y2="25.83" xlink:href="#Gradiente_sem_nome_15"/><linearGradient id="Gradiente_sem_nome_15-86" x1="228.71" y1="81.7" x2="231.01" y2="81.7" xlink:href="#Gradiente_sem_nome_15"/><linearGradient id="Gradiente_sem_nome_15-87" x1="231.11" y1="81.31" x2="232.11" y2="81.31" xlink:href="#Gradiente_sem_nome_15"/><linearGradient id="Gradiente_sem_nome_15-88" x1="217.21" y1="24.43" x2="219.01" y2="24.43" xlink:href="#Gradiente_sem_nome_15"/><linearGradient id="Gradiente_sem_nome_15-89" x1="220.08" y1="27" x2="220.5" y2="27" xlink:href="#Gradiente_sem_nome_15"/><linearGradient id="Gradiente_sem_nome_15-90" x1="219.58" y1="24.92" x2="220.21" y2="24.92" xlink:href="#Gradiente_sem_nome_15"/><linearGradient id="Gradiente_sem_nome_15-91" x1="241.71" y1="22.87" x2="242.41" y2="22.87" xlink:href="#Gradiente_sem_nome_15"/><linearGradient id="Gradiente_sem_nome_15-92" x1="243.21" y1="20.97" x2="243.81" y2="20.97" xlink:href="#Gradiente_sem_nome_15"/><linearGradient id="Gradiente_sem_nome_15-93" x1="244.81" y1="22.12" x2="247.91" y2="22.12" xlink:href="#Gradiente_sem_nome_15"/><linearGradient id="Gradiente_sem_nome_15-94" x1="247.51" y1="21.99" x2="248.51" y2="21.99" xlink:href="#Gradiente_sem_nome_15"/><linearGradient id="Gradiente_sem_nome_15-95" x1="248.91" y1="21.78" x2="250.01" y2="21.78" xlink:href="#Gradiente_sem_nome_15"/><linearGradient id="Gradiente_sem_nome_15-96" x1="249.91" y1="23.05" x2="251.19" y2="23.05" xlink:href="#Gradiente_sem_nome_15"/><linearGradient id="Gradiente_sem_nome_15-97" x1="254.83" y1="20.35" x2="256.81" y2="20.35" xlink:href="#Gradiente_sem_nome_15"/><linearGradient id="Gradiente_sem_nome_15-98" x1="257.31" y1="20.7" x2="258.41" y2="20.7" xlink:href="#Gradiente_sem_nome_15"/><linearGradient id="Gradiente_sem_nome_15-99" x1="258.01" y1="19.08" x2="259.31" y2="19.08" xlink:href="#Gradiente_sem_nome_15"/><linearGradient id="Gradiente_sem_nome_15-100" x1="260.2" y1="19.45" x2="262.13" y2="19.45" xlink:href="#Gradiente_sem_nome_15"/><linearGradient id="Gradiente_sem_nome_15-101" x1="260.11" y1="18.14" x2="262.11" y2="18.14" xlink:href="#Gradiente_sem_nome_15"/><linearGradient id="Gradiente_sem_nome_15-102" x1="261.7" y1="16.3" x2="262.61" y2="16.3" xlink:href="#Gradiente_sem_nome_15"/><linearGradient id="Gradiente_sem_nome_15-103" x1="262.01" y1="17.34" x2="263.61" y2="17.34" xlink:href="#Gradiente_sem_nome_15"/><linearGradient id="Gradiente_sem_nome_15-104" x1="263.11" y1="17.52" x2="267.31" y2="17.52" xlink:href="#Gradiente_sem_nome_15"/><linearGradient id="Gradiente_sem_nome_15-105" x1="267.08" y1="17.15" x2="268.21" y2="17.15" xlink:href="#Gradiente_sem_nome_15"/><linearGradient id="Gradiente_sem_nome_15-106" x1="268.11" y1="18.1" x2="268.74" y2="18.1" xlink:href="#Gradiente_sem_nome_15"/><linearGradient id="Gradiente_sem_nome_15-107" x1="268.67" y1="16.94" x2="269.61" y2="16.94" xlink:href="#Gradiente_sem_nome_15"/><linearGradient id="Gradiente_sem_nome_15-108" x1="0" y1="28.95" x2="4.71" y2="28.95" xlink:href="#Gradiente_sem_nome_15"/><linearGradient id="Gradiente_sem_nome_15-109" x1="5.51" y1="38.3" x2="7.03" y2="38.3" xlink:href="#Gradiente_sem_nome_15"/><linearGradient id="Gradiente_sem_nome_15-110" x1="7.8" y1="42.63" x2="303.11" y2="42.63" xlink:href="#Gradiente_sem_nome_15"/><linearGradient id="Gradiente_sem_nome_15-111" x1="85.09" y1="11.64" x2="88.21" y2="11.64" xlink:href="#Gradiente_sem_nome_15"/><linearGradient id="Gradiente_sem_nome_15-112" x1="12.21" y1="54.53" x2="13.71" y2="54.53" xlink:href="#Gradiente_sem_nome_15"/><linearGradient id="Gradiente_sem_nome_15-113" x1="32.71" y1="56.85" x2="33.51" y2="56.85" xlink:href="#Gradiente_sem_nome_15"/><linearGradient id="Gradiente_sem_nome_15-114" x1="23.7" y1="30.61" x2="24.31" y2="30.61" xlink:href="#Gradiente_sem_nome_15"/><linearGradient id="Gradiente_sem_nome_15-115" x1="27.2" y1="41.45" x2="27.95" y2="41.45" xlink:href="#Gradiente_sem_nome_15"/><linearGradient id="Gradiente_sem_nome_15-116" x1="26.71" y1="36.65" x2="27.25" y2="36.65" xlink:href="#Gradiente_sem_nome_15"/><linearGradient id="Gradiente_sem_nome_15-117" x1="36.91" y1="61.54" x2="39.61" y2="61.54" xlink:href="#Gradiente_sem_nome_15"/><linearGradient id="Gradiente_sem_nome_15-118" x1="27.01" y1="32.39" x2="30.01" y2="32.39" xlink:href="#Gradiente_sem_nome_15"/><linearGradient id="Gradiente_sem_nome_15-119" x1="41.21" y1="68.43" x2="43.21" y2="68.43" xlink:href="#Gradiente_sem_nome_15"/><linearGradient id="Gradiente_sem_nome_15-120" x1="24.71" y1="4.71" x2="25.86" y2="4.71" xlink:href="#Gradiente_sem_nome_15"/><linearGradient id="Gradiente_sem_nome_15-121" x1="29.31" y1="33.49" x2="30.41" y2="33.49" xlink:href="#Gradiente_sem_nome_15"/><linearGradient id="Gradiente_sem_nome_15-122" x1="41.01" y1="60.07" x2="41.74" y2="60.07" xlink:href="#Gradiente_sem_nome_15"/><linearGradient id="Gradiente_sem_nome_15-123" x1="28.21" y1="14.22" x2="28.91" y2="14.22" xlink:href="#Gradiente_sem_nome_15"/><linearGradient id="Gradiente_sem_nome_15-124" x1="35.61" y1="26" x2="37.01" y2="26" xlink:href="#Gradiente_sem_nome_15"/><linearGradient id="Gradiente_sem_nome_15-125" x1="51.02" y1="63.75" x2="52.01" y2="63.75" xlink:href="#Gradiente_sem_nome_15"/><linearGradient id="Gradiente_sem_nome_15-126" x1="53.11" y1="65.1" x2="54.55" y2="65.1" xlink:href="#Gradiente_sem_nome_15"/><linearGradient id="Gradiente_sem_nome_15-127" x1="53.4" y1="64.4" x2="56.71" y2="64.4" xlink:href="#Gradiente_sem_nome_15"/><linearGradient id="Gradiente_sem_nome_15-128" x1="38.86" y1="0.48" x2="39.41" y2="0.48" xlink:href="#Gradiente_sem_nome_15"/><linearGradient id="Gradiente_sem_nome_15-129" x1="46.18" y1="6.45" x2="47.71" y2="6.45" xlink:href="#Gradiente_sem_nome_15"/><linearGradient id="Gradiente_sem_nome_15-130" x1="50.31" y1="9.26" x2="51.31" y2="9.26" xlink:href="#Gradiente_sem_nome_15"/><linearGradient id="Gradiente_sem_nome_15-131" x1="64.82" y1="35.7" x2="65.68" y2="35.7" xlink:href="#Gradiente_sem_nome_15"/><linearGradient id="Gradiente_sem_nome_15-132" x1="60.1" y1="13.75" x2="61.81" y2="13.75" xlink:href="#Gradiente_sem_nome_15"/><linearGradient id="Gradiente_sem_nome_15-133" x1="62.71" y1="16.4" x2="64.17" y2="16.4" xlink:href="#Gradiente_sem_nome_15"/><linearGradient id="Gradiente_sem_nome_15-134" x1="61.93" y1="14.1" x2="62.93" y2="14.1" xlink:href="#Gradiente_sem_nome_15"/><linearGradient id="Gradiente_sem_nome_15-135" x1="65.81" y1="15.3" x2="66.61" y2="15.3" xlink:href="#Gradiente_sem_nome_15"/><linearGradient id="Gradiente_sem_nome_15-136" x1="70.86" y1="9.65" x2="71.7" y2="9.65" xlink:href="#Gradiente_sem_nome_15"/><linearGradient id="Gradiente_sem_nome_15-137" x1="76.51" y1="21.41" x2="77.1" y2="21.41" xlink:href="#Gradiente_sem_nome_15"/><linearGradient id="Gradiente_sem_nome_15-138" x1="85.11" y1="41.9" x2="86.01" y2="41.9" xlink:href="#Gradiente_sem_nome_15"/><linearGradient id="Gradiente_sem_nome_15-139" x1="80.11" y1="9.59" x2="82.61" y2="9.59" xlink:href="#Gradiente_sem_nome_15"/><linearGradient id="Gradiente_sem_nome_15-140" x1="82.11" y1="10.27" x2="85.61" y2="10.27" xlink:href="#Gradiente_sem_nome_15"/><linearGradient id="Gradiente_sem_nome_15-141" x1="81.51" y1="7.7" x2="84.01" y2="7.7" xlink:href="#Gradiente_sem_nome_15"/><linearGradient id="Gradiente_sem_nome_15-142" x1="88.11" y1="9.99" x2="89.12" y2="9.99" xlink:href="#Gradiente_sem_nome_15"/><linearGradient id="Gradiente_sem_nome_15-143" x1="92.91" y1="11.26" x2="95.71" y2="11.26" xlink:href="#Gradiente_sem_nome_15"/><linearGradient id="Gradiente_sem_nome_15-144" x1="92.9" y1="9.66" x2="94.09" y2="9.66" xlink:href="#Gradiente_sem_nome_15"/><linearGradient id="Gradiente_sem_nome_15-145" x1="95.91" y1="12.29" x2="97.71" y2="12.29" xlink:href="#Gradiente_sem_nome_15"/><linearGradient id="Gradiente_sem_nome_15-146" x1="105.51" y1="14.79" x2="106.51" y2="14.79" xlink:href="#Gradiente_sem_nome_15"/><linearGradient id="Gradiente_sem_nome_15-147" x1="110.41" y1="13.87" x2="111.45" y2="13.87" xlink:href="#Gradiente_sem_nome_15"/><linearGradient id="Gradiente_sem_nome_15-148" x1="116.21" y1="15.32" x2="117.31" y2="15.32" xlink:href="#Gradiente_sem_nome_15"/><linearGradient id="Gradiente_sem_nome_15-149" x1="124.8" y1="16.05" x2="127.41" y2="16.05" xlink:href="#Gradiente_sem_nome_15"/><linearGradient id="Gradiente_sem_nome_15-150" x1="139.71" y1="18.22" x2="141.23" y2="18.22" xlink:href="#Gradiente_sem_nome_15"/><linearGradient id="Gradiente_sem_nome_15-151" x1="149.4" y1="18.99" x2="150.61" y2="18.99" xlink:href="#Gradiente_sem_nome_15"/><linearGradient id="Gradiente_sem_nome_15-152" x1="157.81" y1="22.55" x2="158.61" y2="22.55" xlink:href="#Gradiente_sem_nome_15"/><linearGradient id="Gradiente_sem_nome_15-153" x1="193.9" y1="23.99" x2="194.88" y2="23.99" xlink:href="#Gradiente_sem_nome_15"/><linearGradient id="Gradiente_sem_nome_15-154" x1="222.71" y1="82.6" x2="225.81" y2="82.6" xlink:href="#Gradiente_sem_nome_15"/><linearGradient id="Gradiente_sem_nome_15-155" x1="247.65" y1="20.3" x2="248.21" y2="20.3" xlink:href="#Gradiente_sem_nome_15"/><linearGradient id="Gradiente_sem_nome_15-156" x1="251.91" y1="21.87" x2="252.45" y2="21.87" xlink:href="#Gradiente_sem_nome_15"/></defs><title>botao_gradiente</title><g id="Camada_2" data-name="Camada 2"><g id="Camada_1-2" data-name="Camada 1"><g id="Layer_1" data-name="Layer 1"><path class="cls-1" d="M3.11,32.4c0,.7.3.9.8.7C3.61,33,3.71,32.1,3.11,32.4Z"/><path class="cls-2" d="M4.71,31.6c.4,0,.2.9.7.6C5.21,31.9,5.31,31.1,4.71,31.6Z"/><path class="cls-3" d="M5.51,35.4c.1.5.4,0,.9.1,0-.4-.2-.4-.3-.7C5.81,34.9,5.81,35.2,5.51,35.4Z"/><path class="cls-4" d="M8.61,51.8a1.7,1.7,0,0,0,.1.7c.4-.5.4,0,.7-.4C9.31,51.5,9.11,51.4,8.61,51.8Z"/><path class="cls-5" d="M6.11,32.6c-.4.3,0,1.1.4.8.3-.5-.1-.3-.1-1C6.31,32.6,6.11,32.8,6.11,32.6Z"/><path class="cls-6" d="M9.51,52.6c.3.1.1.6,0,1.1a3,3,0,0,0,.5-1.5Z"/><path class="cls-7" d="M9.81,39.1c-.3.5.2,1,.7.3C10.51,38.6,9.81,39.7,9.81,39.1Z"/><path class="cls-8" d="M13.41,55.6c.2.1.7,0,.4.3.2.5.7-.2,1-.3a2.14,2.14,0,0,0,.9,1.5c.4-1.2,1.3-.8,2.1-1-.4-.2-.9-.1-1.1-.8-.3.8-.4.5-1.1.6a1.7,1.7,0,0,0-.1-.7.78.78,0,0,1-1-.2c0-.1-.1-.1-.1-.2A1.7,1.7,0,0,0,13.41,55.6Z"/><path class="cls-9" d="M10.71,40l.1.7c.1-.2.3-.6.4-.3C11.61,40.1,11.21,39.5,10.71,40Z"/><path class="cls-10" d="M13.41,36.4c.2.3.5.3.9-.1C14.11,36.1,13.71,35.7,13.41,36.4Z"/><path class="cls-11" d="M23,62.1c.2.6.8.5.9-.1A.77.77,0,0,0,23,62.1Z"/><path class="cls-12" d="M15.71,37.9c.1.1.1.3.2.5s.3.3.7,0a2.09,2.09,0,0,0-.4-.6A.44.44,0,0,0,15.71,37.9Z"/><path class="cls-13" d="M23.71,51.4c.4.4.5-.3,1.1-.5-.2-.1-.3-.2-.3-.4C24,51.4,23.71,50.5,23.71,51.4Z"/><path class="cls-14" d="M19.61,37.2c.3-.4-.4-.7-.3-1.5C18.81,36.2,19.51,36.8,19.61,37.2Z"/><path class="cls-15" d="M22.71,39.3c.3,0,.6.4,1,0-.3-.3-.7-.4-1-1C22.31,38.6,23.11,39.1,22.71,39.3Z"/><path class="cls-16" d="M30.21,59.4c-.3.9.5.3.7.5C31.21,59.1,30.41,59.5,30.21,59.4Z"/><path class="cls-17" d="M31.51,56.3c-.1-.7-.5.2-.6-.6a1.72,1.72,0,0,0-.2,1.2C31.11,56.2,31.41,57.1,31.51,56.3Z"/><path class="cls-18" d="M35.61,66.5c.3.4.6.8,1,.4C36.31,66.7,36,66.3,35.61,66.5Z"/><path class="cls-19" d="M22.91,30c0,.6.3.3.3.8.4-.3.3-.8.2-1.3Z"/><path class="cls-20" d="M24.11,34.5c.1.7.3.6.6.8C24.81,34.9,24.41,33.9,24.11,34.5Z"/><path class="cls-21" d="M24.41,31c0,.2.1.1.2,0,.5,1,1.3.5,1.9,1.2.5-.4.4-1,.7-1.5-.3-.6-.4.5-.7.3-.2-.5,0-.8-.3-.9-.2.8-.6.5-1,.8,0-.6-.3-.5-.4-1C24.31,30.3,24.81,30.8,24.41,31Z"/><path class="cls-22" d="M35.91,58.5c-.2-.2.5-.5.5-.4.3-.8-.4,0-.4-.6-.4.3-.3.7-.5,1a2.7,2.7,0,0,0,.7.8.54.54,0,0,0-.2-.8C36,58.6,36,58.5,35.91,58.5Z"/><path class="cls-23" d="M24.51,15.8a.37.37,0,0,1,.1.3c0,.4,0,.8.3.3-.1-.2,0-.6-.2-.6Z"/><path class="cls-24" d="M24.91,14.7a.37.37,0,0,0-.1.3c0,.1.2.2.2.2a.36.36,0,0,0,.3-.2c.2-.5,0-.4-.1-.3a.19.19,0,0,1-.3,0Z"/><path class="cls-25" d="M25.11,16.3a4.67,4.67,0,0,0,.5-1c0-.2-.1,0-.1-.3A2.84,2.84,0,0,0,25.11,16.3Z"/><path class="cls-26" d="M37.11,58.4c-.2,1,.7.5.9,1C38.41,58.5,37.41,58.4,37.11,58.4Z"/><path class="cls-27" d="M26,5.3c.3.3.8.1,1.8-.4C27.11,5,26.71,4.7,26,5.3Z"/><path class="cls-28" d="M40.61,60.1c.1-.5-.3-1.3-.7-.8C39.81,59.8,40.21,60.8,40.61,60.1Z"/><path class="cls-29" d="M26.91,21.9c.1.7,1,.4.8-.6C27.31,22.1,27.21,21.7,26.91,21.9Z"/><path class="cls-30" d="M30.61,33.4c-.1.8.7,1,1.3.3-.1-.2-.1-.5.1-.6C31.71,32.2,31,33.9,30.61,33.4Z"/><path class="cls-31" d="M27.41,11.7c-.1.8,0,.9.3.5C27.51,12.3,27.71,11.2,27.41,11.7Z"/><path class="cls-32" d="M42.31,60.9c.1.1.3.2.1.3.7-.6,1.1.5,1.9-.1C43.41,61.1,43.21,59.2,42.31,60.9Z"/><path class="cls-33" d="M30.21,23.5c.1.7.4-.1.7-.3a1.38,1.38,0,0,1-.3-.4A1.61,1.61,0,0,1,30.21,23.5Z"/><path class="cls-34" d="M44.51,61.2c-.3.5.3.2.3.7,0-1,.3,0,.8-.7-.1-.9-.5.6-.6-.3C44.71,61.2,44.61,61.4,44.51,61.2Z"/><path class="cls-35" d="M45.61,61.7c.6.4.5,1.6,1.1,1-.5-.6.3-1-.2-1.6C46.41,62.2,45.91,61.2,45.61,61.7Z"/><path class="cls-36" d="M31.71,17c.3.3.9-.1.8-.9C32.11,16.4,32,16.3,31.71,17Z"/><path class="cls-37" d="M48.81,62.3c.3.8.7.2,1.1.5a1,1,0,0,1-.4,1c.6.5.8-1,1.6-.7-.1-.7-.2-.4-.4-1-.5.5.1.2.2.8C50.11,63,49.51,61.9,48.81,62.3Z"/><path class="cls-38" d="M42.41,39c.3.5.9,0,1.1-.6C43.11,38.3,42.61,38.2,42.41,39Z"/><path class="cls-39" d="M38.21,26.7c.3.1.1.2.3.7a3.54,3.54,0,0,0,.3-1.1C38.61,26.2,38.41,26.6,38.21,26.7Z"/><path class="cls-40" d="M46.11,30.3a.78.78,0,0,0,1.1-.1l.1-.1C47,30.3,46.41,29.5,46.11,30.3Z"/><path class="cls-41" d="M43.31,10.9c.1.5.4.3.5.6.3-.3-.4-.7,0-1C43.71,10.4,43.51,10.8,43.31,10.9Z"/><path class="cls-42" d="M40.31,1.6c.3.5.6.2,1.1-.4C41,1.3,40.41.9,40.31,1.6Z"/><path class="cls-43" d="M54.91,36.8c.1.2.2.5.3.7,0-.2.1-.5.2-.3C55.71,36.8,55.11,36.3,54.91,36.8Z"/><path class="cls-44" d="M45.91,8c.3.6.8.1,1,1,.2-.3,0-.7.1-1.1.3-.2.6.4.7-.3-.2-.3-.5.4-.6-.3C46.71,8.3,46.41,7.3,45.91,8Z"/><path class="cls-45" d="M57.11,33.5c.2,0,.3.4.4.2.3-.4.1-1.1-.1-1.1C57,32.9,57.61,33.3,57.11,33.5Z"/><path class="cls-46" d="M51,8.4c-.1.8,1,1.2,1.2.3C51.81,8.6,51.31,9,51,8.4Z"/><path class="cls-47" d="M51,2.8c.2.5.5.5.9-.1C51.61,2.7,51.31,2.4,51,2.8Z"/><path class="cls-48" d="M55,11.7c.3.2.5.6.9.2C55.61,11.6,55.41,11.4,55,11.7Z"/><path class="cls-49" d="M58.11,13.6c.2.3.4,0,.6.3.1-.2-.1-.5-.2-.8Z"/><path class="cls-50" d="M59.51,13.4c.2.6.5.1.7.4C60.31,13.5,59.71,12.6,59.51,13.4Z"/><path class="cls-51" d="M70,37.3a.19.19,0,0,0,0-.3c.2-.1.2.2.3.4.2-.2.3-1.1.6-.7.4-.5-.5-.3-.1-.7C70.51,36,69.61,36.5,70,37.3Z"/><path class="cls-52" d="M71.11,36.4c.1.3.2.2.4.1a.88.88,0,0,1,.1.7c.1.2.3-.2.5-.4l-.4-.8C71.51,36.4,71.41,35.9,71.11,36.4Z"/><path class="cls-53" d="M72.91,39.7c.2.3.5.1.8-.2C73.51,38.9,73.21,39.2,72.91,39.7Z"/><path class="cls-54" d="M64.11,16.3c.4.3.5-.9.3-1.2C64,15,64.21,15.9,64.11,16.3Z"/><path class="cls-55" d="M63.61,14.3c.4.3,1.1.9,1.4-.2C64.51,14.3,64.21,13.2,63.61,14.3Z"/><path class="cls-56" d="M64.81,16.2c.3-.1.6.2.9-.1-.3-.2-.6-.1-.9-.5C64.71,15.8,64.91,16.1,64.81,16.2Z"/><path class="cls-57" d="M66,19.2c.8-.2.9.4.6-1.3A2,2,0,0,0,66,19.2Z"/><path class="cls-58" d="M75.61,39.8c.3.5.6.6.9.2C76.31,39.8,76,39.3,75.61,39.8Z"/><path class="cls-59" d="M80,42c1-.8,1.6.1,2.3-1.1a3.86,3.86,0,0,0-2.1.3c-.1-.2.1-.4.3-.6C79.91,40,79.71,41.2,80,42Z"/><path class="cls-60" d="M71.51,18.6c.4.5.3-1.2.5-.7C72.21,16.9,71.41,18.2,71.51,18.6Z"/><path class="cls-61" d="M72,18.2c.3.3.5.3.9-.3Q72.61,17.45,72,18.2Z"/><path class="cls-62" d="M84.31,41.5l.3.7c.2-.2.1-.5.4-.7C84.81,41.5,84.61,41.1,84.31,41.5Z"/><path class="cls-63" d="M77.71,23.1c.2-.4,0-.8.4-1C77.61,21.8,77,22.9,77.71,23.1Z"/><path class="cls-64" d="M91.71,11.2c.3,1,.8,0,.9-.6C92.41,10.5,92,10.9,91.71,11.2Z"/><path class="cls-65" d="M100.81,13.1c.3.6.4-.8.8,0,.1.6-.4.4-.5.7.3.4.7,0,.9-.6-.2-.1-.3-.3-.3-.7.5-.7.7.5,1.2-.3-.2,0-.4.1-.6-.6-.6.7-1,.3-1.3-.2C101,12,101.41,12.6,100.81,13.1Z"/><path class="cls-66" d="M104.31,13.3l.3.7c.4-.5.4-.2.6-.9-.3-.6-.9.7-.5-.4C104.51,12.4,104.41,13.2,104.31,13.3Z"/><path class="cls-67" d="M105.61,14.3a2.52,2.52,0,0,1,.7-1.2l-.2-.5c-.1.2-.2.2-.3.1-.1.6.1.4-.3.7C105.51,13.8,105.41,14.1,105.61,14.3Z"/><path class="cls-68" d="M107,15.2c.4-.5.6,0,1-.5-.4-.4-.8.3-1.1-.7C106.61,14.7,106.91,14.5,107,15.2Z"/><path class="cls-69" d="M108.61,13.9a.91.91,0,0,0-.2,1.1c.2,0,.3-.1.4-.3A2.35,2.35,0,0,0,108.61,13.9Z"/><path class="cls-70" d="M108.81,14.4c.1.3,0,.5.2.8.2-.2.1-.7.3-.4.1-.3-.1-.5-.2-.8Z"/><path class="cls-71" d="M109.51,13.2c-.1.3.5,1.4.8.8C110.11,13.6,109.81,13.1,109.51,13.2Z"/><path class="cls-72" d="M114.61,15.6c.3-.5.5-.3.7-.7-.1-.6-.4.1-.6-.6A1.21,1.21,0,0,0,114.61,15.6Z"/><path class="cls-73" d="M117.51,15.6c.2.4.5.5.7.1l-.3-.7Z"/><path class="cls-74" d="M119.21,16a11.73,11.73,0,0,0,1.1.5c.3-.3-.5-.8-.2-1.1-.2-.2-.2.2-.3.4S119.51,15.3,119.21,16Z"/><path class="cls-75" d="M120.61,14.4c.2.3.5-.4.7-.1a.78.78,0,0,0-.6-.9C120.51,13.8,120.81,14.2,120.61,14.4Z"/><path class="cls-76" d="M122.41,17.1c.6-.8,1.1.1,1.6.3.4-.9-.6-1.2-.7-2-.2.9,0,1-.7,1.2-.3-.7-.2-1.2-.7-1.2C121.81,16.2,122,16.4,122.41,17.1Z"/><path class="cls-77" d="M122.71,15.1c.4.3.8-.1,1.2.3C123.91,15,123.11,14.2,122.71,15.1Z"/><path class="cls-78" d="M124.71,14.6c.1.3.3.2.4.5.3-.4-.1-1,.2-1.4-.2-.1-.4,0-.6.2C125.11,14.5,125.11,14.2,124.71,14.6Z"/><path class="cls-79" d="M127.41,14.9c.1.4.3.4.4.5,0-.4.2-.7,0-1.1C127.71,14.9,127.61,14.4,127.41,14.9Z"/><path class="cls-80" d="M158.71,22.6c.4.6.9.2,1.4-.3-.4-.3-.7-.8-1.1-1A3.45,3.45,0,0,0,158.71,22.6Z"/><path class="cls-81" d="M167.81,20.9c.1.7.4,0,.6.2C168.61,20.7,168,20.3,167.81,20.9Z"/><path class="cls-82" d="M177.11,22.9c0,.6.7.7,1.1.2C177.81,22.7,177.51,22.9,177.11,22.9Z"/><path class="cls-83" d="M181.61,23.6c.5-.4,1.3-.3,1.5-.9a1.21,1.21,0,0,0-1.5.9Z"/><path class="cls-84" d="M190.71,23.3c.3.4.7.1,1,.3a.44.44,0,0,0-.4-.6C191,22.9,190.71,23,190.71,23.3Z"/><path class="cls-85" d="M200,26.4c.1-.4.3-.7.4-1.1-.2-.1-.4,0-.6.2C200,25.9,199.91,26.2,200,26.4Z"/><path class="cls-86" d="M228.71,82.1c.7.5,1.6-.8,2.3-.4C230.71,80.5,229.41,81.7,228.71,82.1Z"/><path class="cls-87" d="M231.11,81.3c.3.5.6.4,1-.2A.75.75,0,0,0,231.11,81.3Z"/><path class="cls-88" d="M217.51,25.1a1.1,1.1,0,0,0,0-.8,2.57,2.57,0,0,0,1.5-.1,1.38,1.38,0,0,0-1.8-.2C217.41,24.3,217.31,24.7,217.51,25.1Z"/><path class="cls-89" d="M220.21,27.7c0-.5.5-.9.2-1.4C220,26.2,220,27.1,220.21,27.7Z"/><path class="cls-90" d="M219.61,24.6c-.1.3.1.5.2.8a1.8,1.8,0,0,0,.4-.9C220.11,24.2,219.81,25.1,219.61,24.6Z"/><path class="cls-91" d="M241.71,23.2c.3.3.5-.4.7-.7-.2-.1-.4,0-.6.2C241.91,22.9,241.71,23.1,241.71,23.2Z"/><path class="cls-92" d="M243.21,21.4c.2.3.6-.6.6-.9C243.41,20.4,243.21,20.8,243.21,21.4Z"/><path class="cls-93" d="M244.81,22.5c.8.5,1.6.1,2.4,0-.1-.8.4-.6.7-1C246.81,21.4,246,22.3,244.81,22.5Z"/><path class="cls-94" d="M247.51,22.2c.3.5.7-.2,1-.4C248.31,21.5,247.91,21.5,247.51,22.2Z"/><path class="cls-95" d="M248.91,21.9c.4,0,.7.4,1.1.1C250,21.5,249.31,21.1,248.91,21.9Z"/><path class="cls-96" d="M249.91,23.1c.5.1.6.4.9.7.3-.6.5-.6.3-1.5C250.91,23.4,250.31,22.6,249.91,23.1Z"/><path class="cls-97" d="M254.91,20.7a.19.19,0,0,0,0,.3l.1.3c.3-.7,1.2,0,1.8-.9a.75.75,0,0,1-.1-.5c-.5.4-.9.3-1.3.8-.4-.8.2-.5.3-1.2-.2-.5-.5.9-.7.4C254.91,20.1,255.41,21.1,254.91,20.7Z"/><path class="cls-98" d="M257.31,20.4c.3,0,.2,1,.7,1-.1-.6,0-1,.4-1.2C258.11,19.8,257.71,20.1,257.31,20.4Z"/><path class="cls-99" d="M258,19.3c.4.4.9-.1,1.3-.5C258.71,18.5,258.61,19.1,258,19.3Z"/><path class="cls-100" d="M262.11,19.7c.1-.3-.2-.6,0-.8-.6-.1-1.3,1.4-1.9.4C260.11,21,261.51,19,262.11,19.7Z"/><path class="cls-101" d="M260.11,18.6c.6.5,1.3-.4,2-.9C261.41,17.1,260.71,18.2,260.11,18.6Z"/><path class="cls-102" d="M261.71,16.3c-.1.8.7,0,.9-.2C262.31,15.6,261.91,16.6,261.71,16.3Z"/><path class="cls-103" d="M262,17.3c.5.3,1,.8,1.6-.3C263,17.6,262.51,16.6,262,17.3Z"/><path class="cls-104" d="M264.51,18.7c-.5-.8.2-1.4.5-1,.3.6-.2.7-.5,1,.2.8.5-.3.7.4a7.52,7.52,0,0,1,2.1-3.4c0-1.1-1.3.8-1.4,1.4,0-.9-.7-.3-.4-1.1-.7.9-1.4,2.1-2.4,3.5C263.61,20,264.11,19.4,264.51,18.7Z"/><path class="cls-105" d="M267.11,17.2c-.1.3.1.5.2.8.3-.1.5-.7.8-.5,0-.3-.1-.5.1-.8-.2-.2-.4-.2-.5-.4C267.41,16.7,267.61,17.7,267.11,17.2Z"/><path class="cls-106" d="M268.11,18.6a.63.63,0,0,0,.5-1C268.21,17.9,268.31,18.2,268.11,18.6Z"/><path class="cls-107" d="M268.71,16.8c-.2.7.4.1.5.7.1-.6,0-.6.4-.9C269.41,16,269,16.8,268.71,16.8Z"/><path class="cls-108" d="M.91,28c.1-.3.7-.5.6-.9-.3.2-.4.1-.7.3.6.1-2,2.2-.1.7.6.2,1.5.6,1.4,1.7.7-.3.7,0,.4.6.2-.1.2-.4.4-.5.5,0-.3.5,0,1a2.51,2.51,0,0,1,.7-.4,3.7,3.7,0,0,0,1.1-.5c-.1-.4-.9-.1-1.5-.2.3-.9-.3-.7-.6-.8.6-1.5-.7-1.5-.6-2a.75.75,0,0,0-.4.9c0,.1.1.2.2.3C1.31,28.5,1.71,27.4.91,28Z"/><path class="cls-109" d="M5.51,38a1.76,1.76,0,0,0,1.5.8c-.2-.5.1-.6,0-1C6.31,38.9,6.21,37.8,5.51,38Z"/><path class="cls-110" d="M7.81,39.3c.3.1.5-.2.4-.7.2-.1.2.3.2.5.5-.2.5-.6.9-.8.5.3,1,.8,1.7.4,0,1.8,1.2.8,1.6,1.5-.5,1.2-1.1,0-1.6,1,1.1,0,1.3,1.3,2.7.6,0,.7-.1,1.3.6.7h0a1.66,1.66,0,0,1-.5,1.2.76.76,0,0,1-.4.2c0,.3.1.2.2.2s.1.1.2.1c0-.6.9-.7.6-1.4.4,1.1,1.6.3,2.3.8-.5.2-1,.3-1.5.5-.3.1-.5.1-.8.2-.1,1.2,1.8.2,2.6.2-.2.8.6.9,1.1.9.2-.2,0-.5.2-.6s.2.1.4,0c0,.3-.3.4-.1.8.9.3,2.1,0,3,.1,0,.2-.1.3,0,.5-1,0-1.5.5-2.6.6.6.9,1.6.6,2.3,1.2.4-.5-.3-.3-.3-.7.3-.3.4-.2.7-.3.4.6-.2,1.3.3,1.4.3-.2.2-.5.5-.7-.1-.2-.2,0-.3.1-.2-.4.2-1.6-.3-.7-.4-1,.4-1.2.8-.9-.6.3.5.7-.1,1.3.2.4.8-.6,1-.4.2.7-.6.9-1,.9-.4.3.1.9-.3,1.2.3.5.8-.1,1.1.5-.2.7-.5.4-.9,1.1.2,1,.8-.1,1,.7.3-.5-.4-.4-.4-1.1a1.8,1.8,0,0,1,.9.4c-.3-.7,0-1,.3-1.7.1-.1.2,0,.3-.1.4.4-.4.5,0,1,.6-.9,2.8.4,2.4,1.6.4-.5.7-.1.8-.8.4.6,0,1,.2,1.5-.5-.3-1.1.2-1.5-.2.2.8,1.3,1.1,2,1,.1.3-.3.6,0,1,.5-.4,1-.8,1.5.2.2-.8.6-.6.5-1.5.2.7.7-.2,1.1.6-.1-1.2.9-.3,1-1.1.6.6-.6.8-.2,1.4.4-.6.7-.5,1-.3-.1.4-.2.7-.3,1.1-1.1.2-1.9-.6-2.8,0,.1.6.5-.2.6.6,1.5-1.5,2.4,1.5,3.8.4,1,1.8,3.4.6,3.7,2.4a5.36,5.36,0,0,1,1.1.5c.4-1.2.9-.2,1.4-.3,0,.3-.2.5,0,.8.2-.8.8-.7.7,0,1.2-.7,2,.8,3.1.4-.2-.5.3-.7.5-.9.1.4-.5.7-.4,1,.8.9,1.8.1,2.7.2-.2,1.2.9,1.4,1.2.7.1.6.3.3.5.7.7-1.6,2.3,1.2,3.6-.1.6,1.9,2.5-.7,2.9,1.2-.3-.2-.6,0-.9,0,.1.9,1.2-.2,1.9.3.3.2,1.2,1.3,1.4.4.2-.3.3.5.5.7.7-.5,1.3.2,2-.4.7.7,2.4.8,3.6,1.1,31,9,62.6,10.2,94.1,11.1.2.4,0,.7-.2,1.1-2.3-1.3-4.8.4-7.1-.7-.2.6-.3.5-.7.7-.1-.3.2-.1.3-.4-.3-.4-.8.7-1.1-.2-.3.4,0,.8-.3,1.2-.9-1.6-2.5-1.3-3.9-.6-1-.3-2-.9-3.2-.1a.75.75,0,0,1-.1-.5c-1.7.8-3.9-.6-5.1.5-.2-.4,0-.6-.3-.7-.1.2.1.4.1.7-2-1.2-3.9.6-5.9-.9-.3,1-1.3-.1-1.8-.1-.9-.1-1.6.9-1.9,0a1.52,1.52,0,0,1-2,0c-.1-.1-.2-.2-.2-.3-.4.3.2.7-.3.9-.1.3-.5-.6-.3-.7-.6.8-1,0-1.6.4-.2-.2-.1-.4.1-.6-.7.8-1.3.1-2,.5,0-1.2,0-.1-.5-.7a.68.68,0,0,1-.5.7,1.88,1.88,0,0,0-.2-.8c-.5,1.1-1.3-.6-2.3.6a1.1,1.1,0,0,1,0-.8c-1.1.3-3.6-.4-4,.3-.6.1-1-1-1.7.1-.4-.8-1.3-1.3-1.6-.6-3.4-1-6.7-.5-10.3-1.4-.2.2-.1.4-.3.6-.2-.5-.4-.3-.8-.9-2,.8-4.6-1.4-7-.2-.2-.3,0-.5-.2-.8-.9,0-1.8.4-2.6-.1,0,.5.1,1.8-.8,2.1-.2-.7.1-1-.4-1.3-.1-.5.6-1,.7-.4.4-.7-.5-1.2-.5-.4-1-1.4-2.4.2-3.5-1.2-.4,1-1.1.6-1.6-.4a.47.47,0,0,0-.1.6c-1-.7-2.1-.4-3.1-1.1-.1.2,0,.5-.2.8-1.4-.8-3.7.1-4.7-1.6-.1.1,0,.3,0,.5-1.7-.5-3.4-.3-5-1.5-1.3.5-3.2-.4-4.7-.8-.4.3,0,.7-.4,1-.1,0-.3.1-.4-.1.6-1.7-1.1-1-1.5-1.6-.3.8.4.2.5.7.1.7-.5.4-.6.5-.4-2.1-1.8-1.1-2.6-2-.4.3,0,.7-.4,1-.1.1-.2-.2-.4-.1-.1-.3.2-.5.4-.7q-.3-.75-.9,0c0,.3.2.7-.1.9.2.3.4-.2.5.4-.4.6-.6-.3-1,.5-.2-1-.6-.6-.9-.8,0-.8.6.3.9-.3-.5-1.1.3-.3.6-.7-.8-1.3-.8,0-1.6-.9-.2.3.2.7.1,1-.1.1-.2-.1-.3-.2-.2.4-.1.6.1.7-.6.8-1,.4-1.6,1.2-.3-.4-.4-.4-.3-1-.4-.1-1,1.2-1.3.6-.2-.3.4-.6.5-.9-.3-.5-.6.3-.6.7-.3.4-.5-.7-.8-.3-.1-.3.3-.6-.1-1-.6,1.1-2.1,1.2-1.9,0-.4,0-.8-.6-1.3.3-.3-1.3-1.3,0-1.4-1.2-.8,1.8-1.6-1.3-2.6,0-.7-.6-1.6-.2-2.3-.9-.2-.5.5,0,.1-.6-1.5,1.2-2.4-1-3.8-.4.1.3.3.2.4.6s-.2.4-.1.6c-.6-.3-1-1.1-1.6-1.3-.2.4.1.3.2.5.1.6-.4-.2-.7.5,0-.4,0-.6-.3-.7-.8,1.7-1.4-.9-2.4.2a.83.83,0,0,1,.2-1.2h0c-.2-.6-.5-.1-.7-.5-.1.2.1.6.2.8-.4.6-.6.4-.9.5a1,1,0,0,1,.3-.9c-.8.5-1.3-.2-2.1-.3-.1-.3.3-.6,0-1-.7,1.5-2.6,0-3.4.5-.1-.8-.9-.8-.2-1.3-.4-.3-.5.2-.6.7-.4,0-.3-1.6-.9-1,.1.6.4.1.5.4a.76.76,0,0,0-.2.4c-1-.3-1.9-1.4-3.2-.4a2.22,2.22,0,0,0-.1-1.6c-.4.4-.1,1,0,1.5-.8,1.1-1-1-1.7-.1-.5-.7.5-1.1.3-1.7-.5.5-.4,1.1-.7,1.6-.5.4-.3-.7-.6-.5,0-.3.3-.5.5-.7a.55.55,0,0,0-.9.5c-.5-1.2-.8-.3-1.1-1.6a3.63,3.63,0,0,0-.7-.3,5.55,5.55,0,0,1-.8-.6c-.2.4.2.9-.6,1.1l.5,1c.5.2.4-.7.8.2.3-.1.2-.4.2-.6a6.36,6.36,0,0,1,1.8.6.8.8,0,0,1,.6,1.1c0,.1-.1.2-.1.3.1.4.5-.4.8-.4a1,1,0,0,1-.6,1.3h0c.2.2,1.3.4,1-.4.5-.1.8.7,1.5-.1.1.4-.6.6-.5,1,.2.7,1.6-.2,1,1.1.2.4.5-.4.3-.6a1.17,1.17,0,0,1,1.1.8c.2-.2.1-.5.3-.8s.5.2.7,0a1.33,1.33,0,0,1-.3.8,2.44,2.44,0,0,1,2.6.3c.2.5-.3,0-.5.5.2.5.6-.1.8.7-.5.3-.9.2-1.1-.6-.5,1.2-1.3-.5-2.1.2,1.3.7,2.5.6,3.5,1.1.3-.5-.3-.3-.3-.7.8-.7.4,1.5,1.2.8-.2-.2-.4-.3-.5-.4.4-.8.5.3.9-.4.2.3,0,.5-.2.8.2.1.4-.1.5.3.3-1,2,0,2.7.4.1.8-.4-.4-.6.2a7.56,7.56,0,0,1,3.9,1c.1.3-.2.5-.4.7.3.9.8-.2.8-.6.6-.1-.1.9.4,1.4.6-.3-.3-.8.1-1.1.8.2,1.8-.6,2.4.6.5-1,.7-.5,1.3-.7.3.4,0,.6.2,1,.7-.6,1.3-.3,1.9-.1.1.6-.6.3-.7.3.3.7,1.1.4,1.7-.2.3.4-.2.7.1,1.1-.3.5-.7,0-.8.7a3.7,3.7,0,0,0,3.2-.7c.5.6-.5.9-.1,1.4a3.52,3.52,0,0,1,2.9,1.2c.6-.9.9,0,1.1.2.2-.3,0-.7.3-.9.6,1.2,2.5-.2,2.4,1.2,1.2,0,2.7,1.3,3.7.5.5,1,1.2.1,1.6,1.4.5-.8.8,0,1.4-.9.3.4,0,.7.3,1,2.2.4,4.4.4,6.5,1.8.1-.4.4-.7,0-.8a8,8,0,0,0,5.4,1.2c.5-.3.8.9,1.2.8.1-.2-.1-.4.1-.6a1.62,1.62,0,0,0,2.1.3l.4,1c2-.5,3.8.3,5.7,1.1.1-.2,0-.3.1-.5,3.2,1.2,6.6,1,9.8,1.9.6-.9,2.8.3,4.2.5.8.1,1.4-.4,1.9.5l.4-.6c.3,1.2,1.3-.3,1.8.9,1.7-.9,3.8.8,5.8.1l.3.7c2.5-.8,4.8.9,7.3,0,.9,1.1,2.2-.3,3.1.8.7-.8,1.2.3,1.9-.3a8.51,8.51,0,0,0,5.2.5c3.8.8,7.8,0,11.6.8l.4-.6c.2-.1.1.3,0,.5,2.1-.3,3.6-.1,5.7-.4l.3.7c.4-.1.2-1.1.8-.5.1.3-.2.1-.3.4a.44.44,0,0,0,.7-.4c15.2,1.3,30.1-.7,45.2-.8l.3-.4c2,.6,4.2-.8,6.2.2.4-.2.8-1.2.8-.2a1.13,1.13,0,0,1,1.6-.2l.1.1.4-.6c.7.1,1.4.4,2.2-.2,3.4,1,7-.9,10.3.9l.4-.6a1.13,1.13,0,0,0,1.5.4,1,1,0,0,0,.4-.5c.2.3,0,.5.2.8.3-1.2.6-.4.9,0,.9-.9,2-.6,3.2-.5a1.1,1.1,0,0,1,0,.8c.3.2.4-1.1.9-.4.1-.2,0-.3-.1-.5.3-.3.5.3.9-.4.2.2.1.4-.1.6a2.26,2.26,0,0,1,1.6-.8c.2.8-.3.4-.6.9a36.83,36.83,0,0,1,3.5-1.5l.4.8c-.1.7.3-.4-.1-.7.6-.8,1-.5,1.8-1,.1.7.8.5.3,1,.3.3.4-.9.9.1.5-.6-.2-.5-.3-.7.7-.8,1.3,0,2-.9.1.2-.1.4-.2.6.2.2.4-.3.5.4-.1-.9.4-.3.7-1,1.6,1.3,3.6-1.9,4.9,0,.4-1.4,1.4-1.1,2-1.3-.1,1-.8.2-1.2.8.1.3.3.2.4.5-.6.4-1.1,1.3-1.7,1.5.1-1.6-1.4-.1-1.7.1,1,.8,2.8.4,3.9-.9.1.3-.2.5-.3.8.6-.2,1.8-.1,1.9-1.5.4-.3.2.6.4.8,1.1-.9,1.8-.9,3-2a5,5,0,0,0,4.6-1.6,2.93,2.93,0,0,0,2.8-1.4c1.8.7,5.1-3.1,7.4-.7-.5-2,1.5-1.1,1.4-2.8.5.2,1.1-1.7,1.5-.5,2.1-1.7,4-1.7,5.9-.1a2.69,2.69,0,0,0,.5-1.5c.3-.2.6.1.9.7.3-.7.6-.4.9-.4.2-.9.4-.7.6-1.5-.2-.4-.4.2-.6,0a3.57,3.57,0,0,1,4.8.6h0c.2-1.2.8-1.4,1.4-1.1a9.64,9.64,0,0,1,4.4-4.3l.5,1c-.1-1,.9-.7,1.3-1.3a.64.64,0,0,1,0,.6c1.4-.4,2.6-.6,3.8-2a6.38,6.38,0,0,0,4.5-2.6c1,.2,2.8-1.6,3.5-2.4a21.07,21.07,0,0,0,3.5-3.8c-.4,0-.4-.5-.5-1,.3-.5.5-.1.8-.6-.5-.3-.7.3-.9-.4-.5,1.1-1.2-.5-1.4.7-.2.3-.4-.6-.6-.8a5.66,5.66,0,0,1-1.8.3,8,8,0,0,0,1.5-2.1c-2.2.4-5.2.6-7.8,2.6-.3.2-.5,0-.7-.4a2.2,2.2,0,0,0,.1.8,1.8,1.8,0,0,0-.9.4c-.4-1.5-1.5.8-2,1.8-.3-.5.2-1,.4-1.5-.3.2-.6-.3-.6-.8.5-.7.5-.1.9-1-.2-.5-.5,1-.6.1-.4.3-.1.6-.4.9-.1,0-.3.1-.4,0,0-.5.4-1,.4-1.5.1-.1.2,0,.3-.1-.2,1,.6.2.9.1.2.3.1.5.3.8.8-.5,1-2.1,1.8-2.3,0,.6-.7,1.1-.9,1.7a.82.82,0,0,0,.9-.8v-.2c.9.6,1.8-.7,2.7-1.5-.5-.5-1.1.7-1.7,1.1.4-1.5,1.5-1.9,2.1-1.1.7-.8,1.5-1.5,2.2-.9,2.3-2,4.4-1.4,6.6-3.1-.5-.8-1-.2-1.4-1.4-.5.3-1,.2-1.5-.6-.2.2-.1.4-.2.6-.4-1.1-.8-.1-1.2-.6-.2-.4,0-.7.3-1.1-.5-.7-1,.1-1.4-.1-.4-.4.2-.7-.1-1.1-.7-.5-1.1.7-1.9.9-.2-.9.7-1.5,1.1-2-.1,0-.3-.2-.4-.5-.1.2,0,.3.1.5-.4.4-.6-.3-.8.6-.2-.3-.1-.5-.2-.8a1.67,1.67,0,0,1-1.8.1,1.48,1.48,0,0,0,0,1.3,1.13,1.13,0,0,1-.6.6,6.28,6.28,0,0,1-.3-1.9,3.66,3.66,0,0,0,2.1-2.6,5,5,0,0,1,3.4-.2c-.3-1.3.5-.8,1-.7.1.7-.5-.1-.6.4.5.7,1-.6,1.4-.8.3.4-.2.8.3.8.1-1.1,1.3-1.1,2-.8.5-1,1.2-.5,1.9-1,.1-1.1-.6-.2-.9-.4.6-.6,2-1.8,3-.7.3-.7,1.1-.6,1.8-.8s1.1-.6,1.1-2c.5.4.6-1,1-.5,0,.5-.2.4-.1,1.1l.4-.4.1-.1v-.4a6.15,6.15,0,0,0-.3-1.1v-.1h0l.1.4.2,1.6c.2,1-.1-.6.1.8-.3-1.6-.5-3.2-.7-5-.1-.9-.2-1.7-.3-2.6V24a.52.52,0,0,0,.2-.4c0-.2.1-.2.1-.3s-.1-.2-.2-.4c-.1-.4-.2-.7-.3-1.1-.2.9-.6.5-.6,1.5.1.2.2-.1.2-.3.1.6,0,.4-.1.8-.2-.6-.3-.8-.5-.7a1.08,1.08,0,0,1,0-1.1c-.1-.1-.3,0-.3.5a.66.66,0,0,0-.4-.5H300a.37.37,0,0,0-.3.1,3.81,3.81,0,0,0-1.3.9c-.9-1.5-1.8.6-2.7,1.7l-.2-.3c.4-1.7,1.3-1.7,1.7-2.9-.2-.5-.3-.1-.5-.7a3.9,3.9,0,0,1-2,1.3,6.63,6.63,0,0,0-1.9.9.9.9,0,0,0-.1-.5,3.53,3.53,0,0,0,1.6-1.8c-.2-.5-.5.1-.7-.4.1.7-.1.8-.4.4a2.85,2.85,0,0,1,0,1.3c-.5-.4-1.6.2-1.4,1.5-.2.5-.1-1-.4-.5,0-.3.3-.3.2-.9-.3-.1-.7,1.1-.5,1.5-.2.2-.2-.8-.4-1.1-.5.4-.2.9-.5,1.4s-.3-.5-.2-.6c-.4-.3-.3.7-.4.9a1.39,1.39,0,0,1-.5-1c.2-.6.4-.4.6-.7-.5-.6-.8.5-.8,1.2a1.62,1.62,0,0,0-1.6,1.4c-.5-.5.1-.8-.1-1.3.4-.2.7-.3,1.1-.5a1.86,1.86,0,0,1,.1-1.9c-.2-.3-.4,0-.5.4,0-.8-.4-.1-.5-1a1.53,1.53,0,0,1-1.6.8c-.1-.5.5-.8.6-.1.1-.1,0-.2,0-.3l.2-.3c-.3-.6-.7,0-1.1.2a12.1,12.1,0,0,1-.1-1.9c-.2.7-.2.4-.6.9-.3-.4-.2-.8-.4-1.1a2.61,2.61,0,0,0-.3.8c-.2-.3,0-.6-.3-1a2.22,2.22,0,0,1-1.6.1c-.2-.7.2-.4.5-1.1-.3-.4-.6.5-.8-.2,0,.3-.2.5-.1.8-1.3-.7-2.7.8-4,.2-.1.2.1.4.1.6-.2.4-.5.7-.7.7-.3-2.5-1.8.6-2.5,0,.3-2.2,1.3-1.5,2-2.5-.4-.5-.9.6-1-.6l-.6.9c-.2-.3-.1-.5-.2-.8.2,0,.5-.6.7-.2-.1-.7.2-.4.3-1.1-.4-1.3-.9,1.5-1.3.2-.4.8-.9,1.7-1.3,2.5a1.21,1.21,0,0,1,.1-1.3c-.3-.8-.6-.3-.9-.4a1.37,1.37,0,0,1-.4,1.2c.2.2.4-.3.5.4-.3.4-.6.3-.9-.1l-.9,1.3c-.1-.9.2-.7-.4-.8-.4-.5.2-.8-.1-1.3-.2,1.5-.7,1-1.3,2.2a8,8,0,0,1-1.6-.8,5.34,5.34,0,0,1-1.7,2.5c-.4-.5.3-.8.3-1.2-.8.1-1.8,2.1-2.2,3.2.8.4,1.2-1.6,1.8-2a.76.76,0,0,1,0,.8c.2.3.6-.6.4-.9.7,1.3,2.3-2.4,3.3-.6a2.29,2.29,0,0,1-2.9,1.6h-.1c-.7,2.1-2,1.9-3.1,2a8.87,8.87,0,0,0,.7-2.8c-.3.6-.5.3-.8.9-.7-1.8-1.2.9-1.9-.7a4.19,4.19,0,0,1-1.4.9c.2.3-.1.5,0,.8-.3.2-.5,0-.8.5-.4-.6.1-1,.4-.9,0-.7-1.1.1-1.1.8-.4-.1-.8.5-1.1-.5-.5-.1-1.1,1.5-1.6.9-.3-.9.3-1.8.6-2.6-.7.1-1,1.4-1.9,1-.3-.6-.1-.8-.5-.7-.3.6.6.3.2.8.3.1.5.2.8-.1.1.8,0,.7.5.7.1.2-.1.4-.2.6s-.4-.9-.7-.7c0,.3-.2.5-.1.8-.3.2-.6-.1-.9-.1-.1-.4,0-.6.2-.6s.1.3.2.5a3.3,3.3,0,0,0,0-1.4c-1.4,2.4-2.6,2.2-3.9,3.3-.1-.2-.2-.5-.1-.6a2.91,2.91,0,0,1-1.7,1.4c0-.8,1-1.2.9-1.6.2.7.5.4.1-.1a4.68,4.68,0,0,1-2.8.9c-.3-1.1,1-.6,1-1.8-.4,0-.5-.3-.7.4-1.2-.9-3.5,1.4-4.7,1.6-.3-.5.8-.8.3-1.2a1.63,1.63,0,0,1-1.1,1.3c.3.2.5.5.8.3a.9.9,0,0,0,.1.5c-.6.5-1.1-.7-1.7.4-.2-.3,0-.5-.2-.8-.5.7-.9.2-1.3.5a1.1,1.1,0,0,1,0-.8c-.2-.3-.5.4-.6-.2-.2.2-.1.4,0,.6a13.51,13.51,0,0,0-4.5.2.81.81,0,0,1,.3-.9c-.3-.1-.6.2-.8,0-.5.4.1.9-.3,1.2-.4-.7-.8-.5-1.3.2-.2-.4,0-.6-.3-1-.2.3,0,.7-.2,1.1-.4-.9-.4,0-1.1.2-.2-.4,0-.6-.3-1a1.1,1.1,0,0,0,0,.8c-.6.4-1.8-.7-1.7-1.8-.9.5.6,1,.1,1.9-.3,0-.2-.5-.6-.9-.5.6-.9-.1-1.2,1.1-.4,0-.9,0-1-.9l-.5.7c.3.9.2-.7.4.2-.3,1.1-1.6.2-2.5.9.2-.6.1-1.2.6-1.3-.6-.9-.8,1.1-1.5,1.2-.4-1-.8-.2-1.3.2-.5-.9-1-.6-1.6-.4-.1-.7.5-.2.7-.7-.1-.5.3-.9.2-1.4-.6.9-1.3,1-1.8,2-.1-.3-.4-.1-.7-.4-.1-.9,1.1-.1.5-1.2.3-.6.5.2.9-.4-.2-.8-1.1.5-1-.6-.3.5-.6.3-1.2.8.1-1.3-.5-.1-1-.9-.6.9-1.1.6-1.7,1-.1.6.4,1.2.7.7-.1,1.1-.9.4-1.2.3a1.5,1.5,0,0,1,.4-1.1c0-.5-.3-.6-.3-1.3-.1,1.4-.6.3-1.1,1.3.1.8.4-.1.6.5-.3,0-.7.6-.9-.1-.1-.3.2-.1.3-.4-.1-.3-.4-.2-.2-.5-.3-.5-.2,1-.5.1a2.22,2.22,0,0,1-.1,1.6c-.4,0,0-.5-.3-1a1.39,1.39,0,0,0-.2,1.1c-.1,0-.3-.2-.5.1-.4-.8.4-1.3.1-2a2.66,2.66,0,0,0-.3,1.2c-.4.7-.6-.8-.9.2-.3-.4-.2-.8-.4-1.2-.4.6-.8.2-1.2,0-.3,1.1-1,.7-1.4.6-.2-.4.5-.6.1-1-.5.9-.9.4-1.5.4-.4.3.1.8-.2,1.1-.6.1,0-.9-.5-1.3-.2,0-.4.2-.4.6-.8-1.8-1.9.7-2.8-.4-.4,1-.6.8-1.2,1.4-.2,0-.2-.6-.6-.6-.1-.8.6-.4.8-.8-.5-.5-1,.1-1.4.6-.4-.3-.2-.7-.4-1.3-.4.2-.6-.3-.8.5-.1-.2-.2-.5-.3-.7.1.9-.9,1.1-1.2,0-.4,1.1-.6.6-1,.3-.4.5,0,.2.1.6-.3.4-.4,0-.7.1-.3-.8-.1-.8.1-1.3-.4,0-.8-.3-1.1-1.3.1-.2.2-.2.3-.1,0-.6-.9-.4-1.3-.5.9.6.7,1.6,1.6,2-.9,1.3-.9-1-1.6-.9,0,.7.6,1.5.5,2.1-.2-.6-.8-.6-1-1.4a11.69,11.69,0,0,0-.6,2c.2-1.1-.3-1.1-.6-1.7-.1-.4.4-.8.1-1.3a2.66,2.66,0,0,0-.3,1.2c-.2,0-.6-.6-.4.3-.3,0-.5-.5-.8-.9,0-.5.8,0,.7-1-.5.5-2.8,1.6-2.3-.1-.3-.1-.6.6-.8,0-.5,1.5-1.4.2-2.2,1.6-.1-1-.7-.4-.4-1.3-.3-.3-.3.8-.7,1-.7-.2-1.4-.7-2.1.2,0-.9-.6-.7-.7-.1-.2-.9-.5-.4-.8-.9,0,.5.2.5.3,1.3-.4.1-.7-.6-.8-1.1-.5-.2-.3.9-.9-.1-.1.3.1.5-.2.8.4-.2.8.1,1.1.6l-2-.3v-.5c.3-.3.9.5,1-.5-.4-.5-1,.7-1.5-.4-.1.2-.3.4-.4.3a1.1,1.1,0,0,0,0,.8c-.4.5-.8-.1-1.2.3-.3-.4-.1-.6-.3-1-.4.4.1.8-.3.7-.3-.5.3-.7-.2-.8-.3.2,0,.5-.2.8-1.3-2-3.1-.4-4.2-1.4-.1-.3.3-.6.3-.9-.5-.4-1.1,1-1.5-.4a1.1,1.1,0,0,0,0,.8c-.2.5-.4.1-.6.5-.2-.3,0-.5.2-.8-.2-.5-.6,0-.8-.3a.66.66,0,0,0,.1.6c-.2.5-.4,0-.6.2,0-.3.2-.5,0-.8l-.4.6c-.2-.4,0-.6-.3-1a8.17,8.17,0,0,1-2.7.1l.2.5c-.2,0-.6.6-.8.2s0-.5.2-.8c-.5-.4-1.5.3-1.8.5-.1-.7-.3-.9-.7-.4.4.7,0,.6-.3.9.9-.2,1.2.7,2.1.5.1-.3-.1-.1-.2-.3.3-.7.3.4.6-.2a4.24,4.24,0,0,0,.6,1.4c-1-.8-2.6.4-3.3-.8-.1.1,0,.3-.1.5-.4.3.1-.6-.2-.8-.7,1.2-1.1.4-1.7.1-.2.8-.6.7-1,.5a3.13,3.13,0,0,0,.4-1.9c.3-.2.7.1.8-.5-.4.1-.4-.1-.5-.7-.2.7-.4.5-.6,1-.3.2-.6-.4-.9.2-.3-1.2-1.1-.7-1.8-.3,0-1-.3-.9-.8-.3a.78.78,0,0,1,.2-.8c-.6-.5-1.3.5-1.9,0-.2.3.2.7-.1.9s-.3-.9-.6-.1a1.1,1.1,0,0,1,0-.8c-.3-.2-.1.9-.5.4a.92.92,0,0,1-.1-1c-.5.4-1.3-.5-1.5.4-.2-.4,0-.6-.3-1-.1,1-.5.1-.5.1-.7,0-1,1.3-1.6.2-.2.9-.9.4-1.3.4,0-.3.2-.5,0-.8-.4,1-.7,0-1.3.9-.2.6.4.9.6.6.2.1-.5.7-.6.5-.2.7.4.2.5.4s-.2.5-.4.7-.4-1-.9-.1c-.2-.4-.4-.8-.2-1.1-.3-.6-.7.2-1-.6-.1.4-.1,1-.4.9a4,4,0,0,1,1.8-2.4c-.3-.1-.6-.5-.9-.8-.2.3-.3.9-.5.4-.1.3,0,.5-.2.8-.4.4-.2-.4-.6-.9,0,1.3-1.7,1.3-1.8-.1-.1.8-.4,0-.7.7.3.6.6-.2.9.5-.1.6-.8-.1-1.1-.2a2,2,0,0,1-.5.9c-.3.3-.2-.5.1-.6-.3-.3-.4.8-.2,1.1.2-.2.4.2.7-.4.1.3,0,.6.1,1-.5.4-.8-.6-1.3-.2,0-.6.8-1.7.2-1.9,0,.9-.2.4-.5.7,0-.9.4-.4-.3-1-.1.6-.1.8-.6,1-.1-1.2-.7.3-1-.8,1.1,0,2.1-.9,3.2,0-.4-1.1.9-.4.8-1.6-.1-.3-.3-.2-.4-.5-.3,1-1,.1-1.1-.5.2.9-.5.8-.3,1.7-.2-.1-.5.4-.7-.1s.7.2.2-.8c.3-.7.3.5.6-.2-.1-.3,0-.5-.2-.8-.6,1-.7.1-.8-.6-.1,1.3-1.2.3-1.8.5-.3.6,0,.4.2.8-.7,1-1.6-.1-2,.8-.3-.4.1-.7,0-1.1a2.62,2.62,0,0,1,1.5.2,1.9,1.9,0,0,0,.1-1.3c-.2.3-.3.1-.4-.1a1.27,1.27,0,0,0-.1.6c-.4-1-1.9-.2-2.3.6.4-1.6-.6-.9-.7-2-.2.3-.3.2-.5.1-.3.8.4.2.5.7.1.7-.5,1-1,1.9-.4-.9.5-.9.5-1.5-.4-.7-.4,0-.9.3a2.05,2.05,0,0,1,0,1.1c-.2.2-.4-.5-.7.1.3.7.9-.6,1.1.6.5-.6,1-1.1,1.5-.9.1.4-.4.2-.6.2-.2.5.4.6.4.1-.1,3.1-2.7.1-4.2,1,.1.2.2.5.1.6.2.5.5-.4.6.3,0,.5-.8.9-.9.2.1.8-.7,1.6-1,.8-.1-.2.6-.6.8-.2-.1-.9.3-.9.4-1.7-.4-.4-.2-.6-.6-1,.7-.3,1,.4,1.9-.7-.3-.8.1-.7-.4-1.3,0,.5.3,1.1-.3,1.5-.6-.1-1.2-.5-1.8-.3a.92.92,0,0,1,.1,1,1.14,1.14,0,0,0,.8.3,2,2,0,0,1-.6.9c-.2-.2-.1-.4.1-.6-.5-.5-.2.9-.8.5a6.75,6.75,0,0,0,.2-1.4c-.8,1.1-1.9-.3-2.7.9-.1-.4.2-.7-.2-1.1-.4.3-.7-.2-1.1.6a1.69,1.69,0,0,1,.3,1c-.5.3-.9,0-1.3.4-.1-.6.5-1.8.8-.8-.2-.5.2-.9.1-1.4-.5,1-.9.6-1.7,1.2.1.7.5-.2.6.3-.1.8-.6,0-.9.6-.1-.3,0-.5-.2-.8-.4,1.7-1.1-.2-1.6.5-.1-1.2.8-.7.9-1.5-.1-.2-.2,0-.3.1-.4-.4.3-.6-.1-1-.4.4-.8-.2-.7.7-.4.6-.6-.4-.9-.1,0-.4.2-1,.4-.6,0-1.1-1.3.7-1.2-.8l-.6.9c.2.3.1.5.2.8-.4.3-.3-.3-.5-.7-.7,1.2-1.1-.1-2.1-.8-.6.8-1.7-.6-2.6-.1-.1.7.4.2.6.6-.2.8-1.1.5-1.5.4-.1-.8.6.1.5-.7a3.13,3.13,0,0,1-.5-1c-.2.3-.7,1.2-1.1,1.7-.4.2-.2-.9-.5-1.2-.2-.1-1,.7-.8-.3-.8.8-1.5.4-2.1.1-.4-.5.4-.9,0-1.4-.6.4.1,1-.4,1.4s-.4-.9-.6-1.4c-.3.3-.5-.2-.7-.1a1.91,1.91,0,0,0-.2-1.3c0,.2-.2.6-.3.4-.3.4.3.1.3.7-.3.5-.5,0-.7-.1-.2.4.3.6.4.5a4.25,4.25,0,0,1-.2,1.1c-.4,0-.3-.6-.6.2-.3-.8.2-.5.2-1.1-.3-.5-.4.3-.5.7-.4.2-.8-.3-1.3-.2,0-.5.4-.9.4-1.4-.4-.3-.6-1.6-1.2-1.1-.3-1-.3-1.5-1.1-1.8.2.4.5.4.4,1-.3.4-.6.1-.8,0-.2.3.1.6-.3.9.4,0,.9,1,1.1.2a1.39,1.39,0,0,1-.2,1.1c-.3,0-.1-.9-.7,0-.4-.4.3-.6-.1-1,0,1-.5.8-.9.3-.3.6,0,.8.3.7-.2.3-.3.1-.5.4-.1-.4-.6-.8-.3-1.2-.2-.1-.9.8-.6-.3-.3-.3-.6,1.3-1,.8-.1-.3.2-.5.4-.7-.4-.2-1.2-1.2-1.4-.2-.2.1-.8-.3-.3-.7-.8,0-1.9.8-2.4,2.6-.2,0-.4-.2-.7,0-.3-.6.4-1,0-1.6.5-.5.4-.1.7.1a1.12,1.12,0,0,0,.3-1.5c-.1.1,0,.3,0,.5-.3.3-.6.6-.8,0s.3,0,.4-.6c-.2-.7-.5.4-.7-.4-.3,1.5-1.2.3-1.8-.6-.4.5-.7,1.5-.1,1.7-.1-.8.3-.5.6-.2.1.3-.2.3-.3.1.1.7,1.1.4,1.5.7-1.6.9-3.7-.3-5.5,0-.1-.2.1-.4.3-.6-.2-.3-.4-.4-.8.2,0-1-.4-.2-.7-.7s.7-.6.2-1.1c-.4,1-.6.3-1.2,0-.4.7-.8,1.2-1.1.1-.4.7-.6.1-1,.8-.7-2.3-2.6-1-4.1-2.3,0,.7-.5,1.2-.6.2-.4.3-.3.7-.4,1.1-.1.1-.3.1-.3-.1A2.3,2.3,0,0,1,76,8.2c-.4-.7-.3,1.3-.8.2-.3,1.1-.4.7-.9.6-.1-.4.1-.7.4-1.1-1,.7-2.2-.3-3,1.6-.5.3-.4-.3-.7-.4-.2-.5.3-.9.1-1.4a1.31,1.31,0,0,0-.3,1.2c-.4-.2-.4.3-.8.5-.2-.9.5-1.8.9-1.8-.2-.3,0-.5,0-.3-.5-1-1.3-2.1-2.4-.6-.3-.5.5-.8.2-1.2-.4.8-1.2-.3-1.8-.3-.2.2-.1.5-.4.7,0-.3.2-.5,0-.8-.3,0-.1.2-.4.6,0-.2.2-.4.1-.6-.3-.7-.8-.2-.8.5-.1-.2-.2-.3-.3-.2-.1-.2.1-.4.3-.6-.8-.2-2-1.6-2.7-.5-.7-1-.6.2-1-.5-.6,1.1-.9.9-1.6,1.5.2.5.4.3.6.6-.3.5-.5-.4-.8,0-.1-.2.1-.4.3-.6-.6-.2-1-.9-1.6-1.1-.1-.2.1-.4.3-.6-.3-.1-.5-.4-.8,0-.5,1.6-2-1-3-.1a20.18,20.18,0,0,1,3,1.4c-.4.3-.7-.1-1.1-.2-.2.7.4.3.6.6l-.7.8c-.1-.3,0-.5-.2-.8-.8.3-1,1.7-1.8.9,0-.6.7-.6.9-.9,0-.4-.2-.8.1-1.1-.2.2-.9,2-1.5,1.1a.81.81,0,0,1,.3-.9c-.3-.6-.8,1.2-1.3.7-.3-.5.4-.8,0-1.3a.19.19,0,0,0,0,.3c0,.4-.5,0-.5.9-.1-.2-.7-.5-.7.4-.2-.2-.4.2-.6-.3.1-.6.7-1,.7-1.6l-.9.6c-.2-.4.1-.6-.2-1-.6.1-1-.2-1.6-.3-.1-.4.4-.1.5-.7-.6-.6-1,1.5-1.5.2-.2.1-.5.9-.6.5-.8,1.4-.2,1.1-.2,1.7l-.4.4c-.4-.7-1-.2-1.4-.9.1-.8.8-.8,1,0,.3-.3.6-.6.8-.5-.3,0-.8-1.3-1.4-.3-.3-.5.2-.9,0-1.5-.5,1-1.5.7-2.3.6-.1-.6.3-.1.4-.5-.4-.1-.1-.6-.4-1-.5.4-.9-.2-1.4.3-.5-1.1-.6.1-1.7.9.4,0,.8-.3,1.1.1a.47.47,0,0,0,.1-.6.45.45,0,0,1,.6,0,.1.1,0,0,0,.1.1c.2.3-.3.4-.4.2,0,.5.7,2.1,1.2,1.2A1.2,1.2,0,0,0,45,4c.1,0,.3-.1.4-.1.1.5,0,.9.4.2.7,1.2,1.6,1.6,2.5,1.3-.1,1.1.9.4.5,1.4.2-.3.5-.2.8-.3-.1-.3-.3-.2-.4-.6.2-.1.4-.1.6-.2a.78.78,0,0,1-.2.8c.2.5.4.2.6.8.2-.2.1-.4.3-.6.1.5.3.9.6.3.1.3.2.7.4.6.2.4-.5.5-.1.9.5-1.1,1.9-.3,2.2.6.3.4.2-.5.4-.6s.2,0,.3-.1c.3.4,0,.8.3,1.2.7-.9,1.7.2,2.6.6.3-.6.5-.3.7-.7-.4-.8-.4.5-.8,0,.3-.5.2-.3.1-1.1.7-.9,1.1-.3,1.2.6-.3.5-.4-.8-.7-.1.4.1.5,1,.1,1.5.6.1,1.1.6,1.6.8-.3.8-.1.5.2,1-.3.2-.6-.1-.8-.8-.2.3.2.7-.1.9.4-.2.6.4,1,.3.3-.4,0-.9-.2-1.3.5-.1,1,.5,1.6-.2.1-.4,0-.9.2-1.2.6-.1-.1.8.3,1.2.1.3-.2.1-.3.4.4,1.2,1.6.7,2.1,2,.8-.9,1.5-.1,2.2.1.2.8-.6.6-.7,1.5.5.7.8-.9.8.6a2.85,2.85,0,0,0,.2-1.6,1.9,1.9,0,0,1,1.9.5c.3-1.2.9-.6,1.3-.4.1.2-.1.4-.3.6s-.3-.3-.4-.5a.44.44,0,0,0-.1.5l-.2.3c.3.5.7-.4.9.6-.3.4-.4,0-.7,0-.2.8.5.5.7.8-.7,1.2.7.4,1.1,1,0-.5.2-1.4.6-1.3-.3.8.1.8.1,1.8.1-.2.2-.2.3-.1-.1-.9.5-.7.7-1.5.2.2.9,1.2,1.5.4.3.5-.1.8-.2,1.3.5.5.9.6,1.2,1.2l.4-.6-.4-.8c-.4.8-.7-.3-1-.3.5-.6.8.5,1.3-.1-.2,1.9.9,1,1.5,2-.3-.3-.6.1-.8-.3-.1.8.7.6.9.6l.3-1.2c.5-.1.2.9.3,1.2.2-.3.3-.1.4.1.1-1,.6-.9.9.1-.2-1.1.2-.3.7-1.2.4,1-.7.6-.2,1.6.3-1.1.6-.8.9-1.4.4.8-.6.6-.5,1.2.4.1.5.1.9-.6.3.7-.3.3-.3.9.7,1.2,1.1,0,1.9-.3.2.4,0,.7.3,1.2.5-.7.8.1,1.2-.3.1.4-.2.8-.1,1.3-.2.3-.3.1-.4.3-.3-.4.1-.6.1-.9-.6.1-.8.6-1.4.2.4.3.7.9,1.1.7.3.5-.5,0-.3.6-.4-.4-.8-.3-1.2-.5-.1.2.1.4-.1.6-.4.3,0-.6-.4-.9-.2.3-.3.2-.5.1-.2,1.9-.8-.6-1.4.5-.3-.5.2-.9-.3-1-.3.6-.1,1.3-.4,1.8.2.5.5,0,.7.4.1-.2,0-.4-.1-.7.4-.5.6,0,.9.2,0,.6-.3.2-.5.9-.4,0-.7-.3-1.1.1-.3-.5.2-.9-.3-1-.8,2.2-2.6.2-3.8.1,0-.4.5-.8.3-1.2A10.79,10.79,0,0,0,77,24c.2-.5-.3-.6-.5-.1-.2-.6-.6-.5-.2-1.1a2.77,2.77,0,0,1-.9.1c0-.4.3-.8,0-1.3-.4.9-.4.5-.9.3-.3-.4.2-.7-.1-1.1-.6-.4-1.5.1-1.9.6,0-.3-.1-.6,0-.8.3-.4-.1.8.4.1-.5-.7-1.1-.3-1.6-.9l-.8,1a7.37,7.37,0,0,0-.4-1.4c-.5,1,.1,1.1.2,1.6-.4.5-.5-1.2-1-.3-.3-.7.5-1.2,0-1.9-.1.1,0,.3,0,.5-.8.4-1.4-.2-2.1-.5-.4.6.1,1.4.4,1.4-.4.2-.9,1.7-1.1.9s.4-.1.4-.7-.4.3-.5-.4c-.3.6-.1.8-.6,1a.74.74,0,0,1,.1-.9c-.4-.7-.6,1.2-1,.5-.1-.5.6-.9.3-1.4-.4.3-.3.7-.6,1-.1,0-.3.1-.4-.1,0-.5.5-.4.5-1.2-.5,0-.3-.5-.7-1.2-.8-.7-1.8-.1-2.4-.1.6-1-1.4-.9-1.9-1.5.1-.8.8.3,1.3-.6-.6-.9-1.5.6-1.8-.5-.1.2,0,.4.1.7-.3.7-.5,0-.8.5-.5-1.7-1.5-.4-1.8-1.6-.9.6-1.3-.4-2.1.6.3.1.1.2.3.7-1.1.8-1.2-1-1.1-2.3a11.63,11.63,0,0,0-.4,1.8c-.4-.3-.8-.3-1.1-.7-.1-.4.5-.3.7-.7,0,.4-1.3-.8-1.5-.6-.2-.2-.1-1,.1-.6.1-.8-.3-.1-.5-.1a.66.66,0,0,0,.1.6c-.7-.1-1.6-2.2-2.7-1.5l-.3-.9c-.2.3-.3-.3-.6.2-.5-1.8-1.5-.3-2-2-.9.6-1.6-.1-2.2-1.3a10,10,0,0,0,1-1.1c-.8-.1-1.9.8-2.1-.3-.2,1.3-.9,1.8-.9,3.3-.4-.3-.8-.8-1.2-1.1-.2,1.4,1.5.8,1.2,2.5-.2.3-.3-.5-.4-.7-.2,1-.7-.1-1.2.7a1.81,1.81,0,0,0-.1-1.6c-.1.8-.4.9-.8,1.3-.2-.7-.5-1.6-.7-.6-.2-.5,0-1-.3-1-.1-.6.1-.4.4-.7a.9.9,0,0,0-1.1-.1c-.2-.6.5-1,.3-1.6-.2.2-.5,1.4-.7.6-.1.4-.4.7-.1,1.1-.5.2-.4.1-.8,1-.3.5-.2-.9-.4-.4-.5.5.1.7.2,1-.2.1-.4-.4-.7-.2-.1-.4.5-.8.2-1.2-.2.6-.6.2-.4-.3-.7,1.1-1.4.3-1.8-1a10.37,10.37,0,0,1-.4,1c.3.4.1.4.3,1,.2-.2.1-.5.1-.8.7-.1,1.1,1,1.7,1.6-.7.4-1-1-1.6-.6a3.59,3.59,0,0,1,.7,1c-.4.3-.5-.6-1,.4-.1-.4.3-.8.1-1.3-.2.3-.3.1-.5.4-.1-.3.1-.5.2-.8-.1-.4-.3.1-.4-.4-.2.9-.6.2-.8,1.1-.3-.6.2-1,0-1.6-.4.4-.9-.4-.9-.9-.3.2-.4.1-.4-.1s-.1-.3-.3-.2c0-.6.2-.1.3-.5-.1-.8-.5-.2-.6-.8a6.47,6.47,0,0,0-.4,1.3c0-.2-.3,0-.5.8,0-.4.2-.6.2-.9s-.2.3-.2-.3c-.2.3-.2.7-.3.7a5.78,5.78,0,0,1,.5-1.4c.2-.4-.2,1.1.1.3s0-.7-.2-.3c.1-.3.1-.6.2-.9-.2.4-.6.9-.4.2,0-.2-.1.2-.2.4-.1,0-.2.1-.1-.3V5.2c-.5.4-.7-.1-1.1.3a.37.37,0,0,1,.5.2l.2.3.1.2v.1s0,.1.2-.2a4.15,4.15,0,0,0-.3,1.6c-.5.9-.1-.2-.1-.3l-.1.2a.37.37,0,0,0-.1.3,2.35,2.35,0,0,1-.2.8c.2-.4.3-.4.1.1.3-.5.2-.1.4-.7,0-.4-.2,0,.2-.8.1-.2-.1.7.1.2a3,3,0,0,0-.3,1.1c.3-1.1.1.1.2.1,0,.2-.3,1.1-.3.7.1,0-.1,1.1.2.8-.3,1.4.2.6,0,1.9.3-.2.4-.9.6-.8a4.88,4.88,0,0,1-.3.7c-.1,1,.3.5.4,1,.2-.4.2-.5,0-.6.3-.7.4.1.5-.6,0,.1-.1,1,.1.7,0,.6-.1.4-.3.7.1.7.7,0,.9,1.3.5-1.6.4.9,1-.4-.3.9.3.5.2,1.2-.3,0-.6.2-.8-.7-.5,1.2-1.1,0-1.3-.9a3.1,3.1,0,0,1-.6,1.3c.2-.3.4-.3.6-.1a4.62,4.62,0,0,1,.7.7c.5.5,1,.9,1.6-.4.5.3,1,.2,1.4.9.2-.4.2-.6,0-.7l.6-.8c.2-.1.3.1.4.4-.3.4-.5-.2-.9.6.1.5.4.5.6,1l.5-.5c.2,0,.3.1.4.3.1.4-.2.7-.5,1,.6.4.6-1.4,1.2-.7a1.1,1.1,0,0,0,0-.8c.2-.2.4-.3.5-.2-.6,1.3.7,2,1,2.7-.6.3-1.6-1-1.8.2-.5-.1-.9-.8-1.5-.7-.2.9.6.4.7.8-.5.3-.4,0-.8.8,0-1.4-.5-.3-.4-1.7-.5.5-.4,1.1-.4,1.7-.3.2-.2-.8-.3-1-.3.3-.4.1-.7.6-.2-.4,0-.6-.1-1-.5.7-.2,0-.5-.3-.5.4-.8-.1-1.2.3-.3-.4.2-.7.1-1.1.4-.2,1,.8,1.2-.5-.2-.1-.5.4-.8.5v-.7c-.5.6-.6.6-.7,0-.6.4-.2,1.1-.8,1.6-.1.1-.2,0-.3.1-.1-.5.2-.8.3-1.2,0-.8-.3-.2-.3-.8a.66.66,0,0,0-.1.6c-.4.3-.5-1.3-1,0a1,1,0,0,0-.6-.5c-.2-.1-.3-.3-.3-.9-.4.7-.3,0-.5.1a3.1,3.1,0,0,1-.6,1.3,6.6,6.6,0,0,1-.1,1.4,10.91,10.91,0,0,1,.6-1.1c.3-.1.3.5.7-.2,0,.6-.5,1-.7,1.5,0,.5.5.1.2,1,.3.4.9-.6,1,.7-.3.4-.5,0-.8.4.1.2.3.1.3.8.2-.6.3-.6.2.1.8-.9.8.9,1.6.7.3.4-.2.6-.4.9.1.6.4.1.6.5a3.72,3.72,0,0,0-.2-1.8,2.35,2.35,0,0,1,.2-.8c.2,0,.3.2.5.3,0,.3-.3.6,0,1,.3-.2.3-.5.4-.7s.2.3.3.1c.1.7-.3.3-.4.9-.3.3-.4-.7-.8,0a29.24,29.24,0,0,0,3.6,1.7,27,27,0,0,1,3.8,1.9c.4-1.3,1.1-.4,1.2.6.3-.6.1-1.4.4-2,.5-.2.3,1,.9.7,0,.2-.2.4-.3.6.4.3,1-.4,1.3.1-.8,1.6.9,1.1,1.4,2.6.4-.2,0-.6,0-1,.7.2.4.3,1,.8.2-.2-.2-.6,0-.8s.3.1.5.4a2,2,0,0,1,.5-.9c.5-.4.2.9.7.1a.81.81,0,0,1-.3.9c1,.7.8,1.1,2.2.9a1.2,1.2,0,0,1-.2.8c1-.8,1.7.3,2.6-.1a1.27,1.27,0,0,1-.1.6c.3.1.7-.3,1.1-.9a.64.64,0,0,1-.1.9l-.1.1c1.1-.2,2,1.8,3.3.3.3.4-.2.7.1,1.1-.2.3-.3-.3-.6.2.9-.1,2.1-.8,3,.1.2-.7-.6-.6,0-1.3.4.7.7,1.3,1.1,1.2.4-.9-.4-.1-.6-.6.4-.6.7-.2,1.1-.3a8.33,8.33,0,0,1-.4,1.5c1-.1,1.8-1.1,2.7-.3,0,.2-.2.4-.1.6s.3.2.4.5c.4-.5.2-.6.7-.8a1.69,1.69,0,0,0,.3,1,2.25,2.25,0,0,1,1.4.1c.2.4-.3.5-.4.2.2,1,1.1,0,1.5-.8.4.5,0,.8-.3,1.2.6.1,1.4-1.1,2-.4.2.3-.4.9-.4.3a1,1,0,0,0,.8,1.1c-.2,0-.6.1-.3.6-.2.1-.3-.4-.6.2.2.6.6.1.9.5-.1-.4.3-1.2.6-.7.1-.3-.1-.2-.2-.5a2.16,2.16,0,0,0,1.2-1.1c.4.5-.3.8,0,1.3.3-.5.8-.4.9-1.1.8.3,1.6.9,2.2.7,0-.4,0-.8.4-1,.2,1-.4,1.3.4,1.7-.3.6-.5.1-.8.2-.1.8.9,0,1.2.4.1-.3-.1-.5.2-.8.3.4.5.2.6,1.1.4-.3.2-.7.6-1,.3-.1.4,1.5,1,.3.2.3,0,.6.3,1-.3.4-.5.2-.7,0,1.2,1.8,3.5.7,5.2,1.4a3.08,3.08,0,0,1-.5,1.2c.3.3.7-.2,1,.3a1.64,1.64,0,0,0,.2-1.2c.8.1,2.1,1.8,3.2-.1.2.8-.4.5-.4,1a5.27,5.27,0,0,1,1.2.3c.1-.3,0-.5.2-.8.6-.2,1.5,1.8,1.9.5.2.4,0,.8.3,1.2.3-.1.7-.8.8,0,.6-1.6,1.5.6,2.4-.4-.1.3.3.7.1,1,.5-.3,1-.8,1.4.4.2-.4.4-.5.6-.5a2,2,0,0,0,.1.7c.1-.5.6-.4.4.1.3-.4.8-.2,1.3.2,0-.7.2-.7.5-.7.1.2-.1.4-.3.6.4.3.9.1,1.4.4-.4.7-.5-.2-.7.7.3.2.5.5.8.3.1.3-.2.5-.4.7-.3-.1-.6-1.1-1-.3.4-.2.1,1.1.6.9,0,.7-.3.7-.7.8-.1-.4.1-.7.2-1.1-.3-.5-.5.3-.7.7-.3-.1-.6.2-.9-.5.7.3.6-.9,1.1-.6.2-.5-.6-.4.1-.9.4-.5-.2,1,.2.5.6-.6.1-.3-.1-1,.1,0,.3-.1.4,0-.3-.6-1.6.1-2.3-.5.1.9-.4.1-.5.9a1.79,1.79,0,0,0,1.4-.4c0,2.1-1.4,1.2-2,1.8-.6-.9.1-1.6-.2-2.4-.1,1-.6-.4-1,.5a.79.79,0,0,1,.8.8c0,.2,0,.3-.1.4-.4-1.1-.5.5-1.2-.3-.3-.5.2-.9-.1-1.5l-.5.7a.88.88,0,0,1,.1.7c-1,.6-1.8.2-2.7.5.2.8.5.3.8.6-.6.4-1.5.7-1.6-.6.2.2.5,0,.8-.5s-.4-.3-.2-.8c-.6.1-1.2,1.2-1.5-.2-.3.6-.5.2-.7,0,0,.3-.3.5-.2.8-.6-.7-1.9.3-2.1-1a7.89,7.89,0,0,0-1.3.3,2.35,2.35,0,0,1,.2-.8c-.3-.4-.3.6-.5.7a1.84,1.84,0,0,1,.2-1.6c-.4-.3-1-.1-1-1.1-.2.6.1,1.3-.4,1.8.5.6.4-1.3,1-.5a1,1,0,0,1-.5,1.2c-.7.2-1.3-1.5-2-1.1-.2-.9.4-.5.7-.8-.3-.5-.6,0-1,.2a1.7,1.7,0,0,0,.1.7c-.3.1-.3-.4-.4.3-.4-.7-1.2.8-1.5-.7-.1.7-.9.7-.9-.2-.4,1.3-1.3,1.1-1.8.5-.2.2-.1.4-.3.6-.4-.6-1-.2-.9-1.3-.3.3-.5.7-.8,1-.6-.6.3-1,0-1.6-.5.6-.8.4-1.2,0-.1.5-.6,1-.7,1.5-.2-.7.6-1.2.2-1.9-.2,1.5-1.3,1.2-1.8.5-.5.2-.6,1.2-1,.8.1-.5.5-1.1-.1-1a1.85,1.85,0,0,1,.7-1.2c0-.2-.1-.1-.2,0l-.1-.3c-.3.4-.2.8-.5,1.2-.5.4-.3-.9-.8-1.4-.4.5-.6-.4-1,0,.3.9.6.8,1,.5a2.66,2.66,0,0,0,.3,1.2c-.4-.2-.4.5-.8-.3-.4.2.2.7-.3.9-.3-.8-1.2-.8-1.8-1.1-.2.4.5.6.7.4,0,1.2-.9.9-1.3.6-.2-.8.6.1.4-.5-.4-.9-.4.5-.8,0,.7-1.4-1.4,0-1.8-1.6-.3.6-1,.8-1.6,1.5.2-1.4-1.4-.4-1.7,0a.88.88,0,0,1-.1-.7c-.2.5-.5-.2-1,.5-.1-1.2-.6-.1-1.3.1-.1-.4.2-.7-.1-1.1-1.3.6-1.8-.2-3,0-.1-.4.2-.8-.2-.8-.2,1.3-.7.4-.9-.5.1,1-.6,1.5-1.1,1.1,0-.8.6.1.6-.7-.1-.3-.3-.2-.4-.6-.2.4,0,.8-.4.7-.1-.3.3-.5.2-.8-.5-.5-.8-.1-.8.5-.5.2.2-1-.3-.9a1.17,1.17,0,0,1-.9,1.1c0-1-.3-.1-.5-.9-.1.7-.5.5-.8.2,0-.4.2-.2.2-.8-.3,1-1.5-.4-1.6,1.1-.3-.5-.8.8-1.1.3-.2-.7.4-.4.7-1.1-.3-.3-.7,0-1-.4-.5,1.9-1.5.7-1.9,1,.1-.6.6-.7.8-1,.1.2.1.5-.1.6.3.4.3-.4.8-.5-.6-.3-.8-.1-1.1-1.5-.4.3-.1.7-.3,1.1-.4-1.2-2.7-.5-3.4-1.1-.1.1-.8.4-.6,1-.6.6-.8-.8-1,.4-.2-.5.2-.8.2-1.2.2-.1.3.3.4.6.4-.5,0-1,.6-1.2-.5-.1-.6.3-1.2.7a2,2,0,0,0-.1-.7c-.4.5.1.4-.1,1.1-.3.2-.5-.4-.9.3a11.37,11.37,0,0,0,4,1.9c.3.4-.3.6,0,1,.3.1.3-.3.6-.7.3.7-.4,1.2-.8,1.8-.8-.2-1.4-1.8-2.5-1.1-.3,0-.4-.7-.7-.7.1.8.1.6-.4.2-.4.2-.1.6-.3.9-.5-1.3-.8-.5-1.4-.6-.2-.4.1-.6-.2-1-.1.7-.5,1.1-.8.6s.6-.5.2-.9c-.2.3-.3.1-.4-.1a1.61,1.61,0,0,1-.4.7,3.53,3.53,0,0,1-1.5-1.7c-.4,1.3-.5-.5-1.1.2-.1-.6.4-.1.6-.7a.87.87,0,0,1-.9-.4c-.2.1-.6.9-.7.5-.1.8-.2.7-.8,1.2.7,0,.8,1.1,1.5.6.2.8-.3.5-.1,1.1a1.61,1.61,0,0,0,.6-1.3c.3-.2.4.1.7-.3-.2,1,.5.7.8.5.1.7-.5.5-.7,1.3.3.2.4,0,.7-.5.1.3.2,1,.7,1.2a2.84,2.84,0,0,1,.8-1.1,3,3,0,0,0,.1,1.6c.3-.4.5.2.7.2-.2.3,0,.8-.1,1.1a4.27,4.27,0,0,1,2.9,1c.7-.9,1,.6,1.7.1.7,1.8,2.5-.5,2.9,1.7.3-.5.4-.1.7-.5.2.7.4.7.6,1.1-.4.3-.7-.4-1,.6.3-.8-.2-.4-.5-.7-.3.6,0,.5.3.7-.5.7-.9.1-1.3,0-.1-.3.5-.4.6-.2,0-.8-1.1-.2-1.5-.5.1.6.5,0,.6.6-.8-.4-1.3.3-2.1.3-.2-.4.7-.6.3-1.1l-.5.5c-.4-1.8-1.5-1.8-2.2-1.2.7-.8-.3-.7-.7-1-.1.4-.4.7,0,.8-.9,1-.6-.8-1.4,0a2.2,2.2,0,0,1,.2-1.4c-.2-.3-.8.6-.9.9-.5.3-.9-1.3-1.3-.2-.2,0-.7-.6-.5-.9a1.45,1.45,0,0,1-2.1,0c-.1-.1-.1-.2-.2-.2.6-.2.5-.1,1.1-.9a12.75,12.75,0,0,1-.7-1.2c-.3.1,0,1.2-.3.7-.3.8.4.1.6.1-.1,1-1.4,1.5-1.7.2-.6-.3-1.8,1.5-2.2.3l-.6.5c-.3-.4.2-.6.3-.9-.3-.4-1.1.7-1.3-.1,0-.6.5-.3.7-.6-1.2,0-2.5.2-2.8-1.3a1,1,0,0,0-1.2.2.63.63,0,0,1-.2.8c0-.4-.3-.5-.6-.6s-.9-.2-1-.9c.3-.3.7-.6.7-.2,0-.6-.8-1-1.2-1.3-.7.5.3.1.1.9-.5.4-.6-.2-1.1.2a1,1,0,0,1-.4.7c.1.5.3.2.1.7a.9.9,0,0,0-.5.1c0-1.3-.2-1.1-.6-1.8.6-.6.4.7,1,.1,0-.6-.3-.4-.3-1a.92.92,0,0,1-1.3.6c0-.2.2-.3.4-.5.1-.8-.4-.3-.5-.9-.3.2,0,.7-.2,1-.6.5-.9-.5-1.6-.4-.3.8.5.1.6.6,0,.2-.1.3-.1.5-.3-.5-.7,0-1.3.1-.3.8.2.8.7.2.3.6-.8.7-.2,1C8.41,38.6,7.71,38.4,7.81,39.3Zm35.1,18.6c.4-.6.7.1,1,.3C43.51,58.6,43.21,58.3,42.91,57.9Zm27.9,10.7c-.4.7-.9,0-.6,1-.6.3-1.1,0-1.6-.4.3-.6.3-.2.7-1.2.1.2.2.7.4.5s0-.4.1-.6C70.11,68.3,70.61,67.6,70.81,68.6Zm213.1-27.7c.3-.5.3-1.1.7-.4C284.51,41,284.11,41.4,283.91,40.9Zm0-17c.6-.3.6-.5,1.1-1.5.2.7.4.3.6-.1a9.83,9.83,0,0,1,.5,1.6c.5-.6.2-1.3.1-1.9.7.4.6,1.9.2,2.7-.6-1.2-1.3.9-1.9.3-.3-.7.4-.3.2-.9-.4.4-.9.4-.8-.2Zm-56.8,3.2c-.4.5-.7-.2-1,0,.3-.5.6-.4,1,0Zm-29.1,0c-.1-.6-.8-.5-.6-1.2.2.8.9.3.6,1.2Zm-21.8-2.6c.2.2.5-.4.7.4-.3.4-.9.2-.7-.4ZM49.71,4.9a1.23,1.23,0,0,1-1.1-.7C48.91,4.3,49.81,4.1,49.71,4.9Zm6.1,11.6c-.1.7-1.7.2-1.3-.7C54.81,16.6,55.41,15.6,55.81,16.5Zm-27-8.6c.1-.2.2-.5.3-.7-.1.3,0,.2,0,.5C28.91,8.1,28.71,8.5,28.81,7.9Zm34.6,32.2a4.14,4.14,0,0,1-1.9-.5C62.21,39.2,62.81,39.4,63.41,40.1ZM45.81,37c-.3-.2-1-.1-.9-.7C45.11,36.3,45.91,36.2,45.81,37ZM37,34c0,.2-.5,1.3-.6.5-.2-.4.5-.9.6-.5Zm-25.2,4.4c-.1-.3-.2.2-.4.3.1-1.1-.7.3-.6-.8C11.41,37.3,12,37.9,11.81,38.4Zm12.5,8.9c-.3,0-.6.4-.8-.2C24.21,46.4,24.31,47.2,24.31,47.3Zm12.4,8c-.1.6-.7.5-.9-.2.4-.6.6-.1.9.2Zm2.7.7a.69.69,0,0,1-1-.8c.3.5.8-.1,1,.8ZM27,19.7c.4.2.9-.1,1.3.5a.78.78,0,0,1-1,.2A1.08,1.08,0,0,1,27,19.7Zm19.2,48.5c-.1.7-.8.6-1.1,0C45.61,67.4,45.91,67.7,46.21,68.2Zm-9.6-23.5c-.3-.1-.7.4-.9-.2C36,44.1,36.81,43.9,36.61,44.7Zm-8.9-27.8c0-.5-.4.1-.2-.7C27.61,16.4,28.11,16.1,27.71,16.9Zm.5-.3c-.1.9.2.3.3.6-.2.2,0,.6-.1.8-.3-.2-.1-.7-.5-.2l-.1-.5C28,17.1,28,16.8,28.21,16.6Zm.9,2.4c-.3,0-.7.5-.8-.2.4-.7.7-.4.8.2Zm8.2,18.1c.2-.2.4-.3.6-.2-.5.4-.5,2-1,1.4,0-.7.6-.6.4-1.2Zm-5.6-17.9c-.2.2-.3.4-.4.5l-.2-.5C31.41,18.6,31.51,19.1,31.71,19.2ZM29.51,8.6c.2-1.1-.1,0-.2-.4.1-.5.3-.6.3-.5A1,1,0,0,1,29.51,8.6Zm9.8,28.6c.5.8,1.4-.6,1.5,1,.2-.9.8-.8,1.1-.3-.9,0-.9,1.2-1.9,1.7-.2-1.3-.3.1-.4-1-.5.1-1.5.6-1.6-.2.1.1.6.1.4-.2-.3.1-.6,0-.9-.5.3-.5.5-.1.7.5C38.71,37.8,39.21,38.1,39.31,37.2ZM46.81,58c-.1.8-.6.5-.9.3C46,57.6,46.51,57.6,46.81,58Zm-9.1-23.4.3.7c-.2.4-.5.5-.6.2C37.81,35.3,37.21,34.9,37.71,34.6Zm-6.4-24c-.4.6-.3-.8-.7,0-.2-.5.3-1.1-.1-1.2.7-.9.4,1,.8,1.2Zm3,10c-.3.4-.7,1-.8.3.1,0,.6-.9.8-.3Zm-2.2-6.7c-.1-1,.9-1.9,1.1-1.2a1.32,1.32,0,0,1-.6,1c.1-.7-.2-.3-.5.2Zm12.5,27c.1-.8-.3-.4-.6.2-.2-.1-.3-.3-.3-.7-.8.6-1.2-.6-2,.1-.2-.4.2-1.4-.4-.6-.3-.5-.1-1.8.4-1.2-.1.2-.3.4-.1.6.3-1.8,1.3-1,2-1.3l.3.9c.4,0,.9-.8,1.1-.1a1,1,0,0,1-1.1.8c-.2,0-.3-.1-.5-.2.1.2-.1.3-.2.3.3.1.5.8.8.8.6-.8,1.1-1.4,1.5-.5C44.91,39.8,45,40.5,44.61,40.9Zm-9.7-20.6c.2-.3-.1-.7.2-.9,0,.7.4-.3.5.4a6.38,6.38,0,0,1-.8,1.4l-.2-.5Zm20.7,50.8c.1.5-.6,1-.7.3C55.11,71.3,55.51,70.4,55.61,71.1ZM52.41,60c-.3,1-1.2-.5-.8-.3S52.21,59.3,52.41,60ZM35,14.4l-.4.5c0-.2-.2-.5-.1-.7C34.61,14.5,34.81,13.6,35,14.4Zm2.6,4.1a.61.61,0,0,0,0,.8l-.5.7a3.33,3.33,0,0,1-.6-1A4.79,4.79,0,0,0,37.61,18.5Zm-2.4-4.4a3.19,3.19,0,0,0,.3-1.4c.1.4.4-.1.4.4-.9.9.5.7.2,1.5-.3-.5-1.2.3-1-.9Zm3.5,7c0-1.1-.6-.2-.9-.7.5-1.4,1.4-.5.9.7Zm.7.5c.3.2,0,1,.3.7s0-.8.3-1.1c.1.2.2.5.3.7-.2.2-.4.5-.2.8-.3.4-.5.7-.7.3a.47.47,0,0,0,.1-.6c-.4.3-.2.6-.5.9-.4-.8.2-1.2.4-1.7Zm1.8,4.5c-.5.6-.9.5-1.1-.4.5-.4.8-.1,1.1.4Zm-4.7-11.9c.5-.3.7.8,1.2.5-.5.6-.7.4-1.2.2C36.71,14.7,36.61,14.5,36.51,14.2Zm10.7,25.4-.5.5c-.2-.7-.4-.8-.7-.1-.1-.2-.1-.3-.2-.5C46.31,39.1,46.71,39.5,47.21,39.6Zm-9.1-23.7c-.2-.4-.5-.1-.7-.6C37.71,14.8,38.31,15.2,38.11,15.9ZM57,61.8c-.6.3-1-.4-1.5-.3C55.81,60.5,56.61,61.3,57,61.8ZM37,11.1a3,3,0,0,1,.4-1,.66.66,0,0,1,.7.2,3.53,3.53,0,0,1-.3,1.4c.6-1,.9-.6,1.3-.6.2,1.2.5,1.1,1,1.7-.4.8-1.2-.1-1.7-.4a1.1,1.1,0,0,1,0,.8q-.75-.15-.3-.9c-.4.1-1.7.4-1.8-1.2.4.4.4-.2.7,0Zm3.2,8.4c-.3.8-.5,1.1-.9.6.7.1.4-.9.9-.6Zm-2.4-6.2c.2.3.4.1.5.6-.3.5-.8,0-.5-.6Zm10.6,26.6c.1.2.3.2.5-.1l.3.9c.7-.6.8.1,1.6-.3-.2.3.1.6-.3.9-.3-.7-.7-.4-1.1-.2a1.67,1.67,0,0,1-.4,1.5,2,2,0,0,1-.7-.9c.3-.5.6,0,.9-.6C49.11,40.3,48.41,40.5,48.41,39.9Zm.2.8c-.4.4-.7.2-.9-.5.4-.3.6.3.9.5ZM39.81,15c.3.4-.3.6,0,1-.3.3-.5.3-.7-.1C39.21,15.4,39.61,15,39.81,15Zm20.7,51.7c-.3.3-.6.7-.8.2C60,66.4,60.21,66.5,60.51,66.7Zm-21-53c.1.3,0,.5.1.8-.3.4-.5.2-.6-.3Zm6,13.3a2.35,2.35,0,0,1,.2.8c-.4.1-.9.4-1.1-.4.3-.6.5.3.9-.4Zm-4.8-11.6c.4.7,1-.1,1.3.6-.4-.2-1.1.8-1.4,0C40.81,15.8,40.61,15.6,40.71,15.4Zm1.6,3.8.4-.5a4.48,4.48,0,0,1,.1,1.1C42.71,19.2,42.41,19.9,42.31,19.2Zm-1.7-5.6c.2-.4-.4-1,0-1.3.4.1-.1.6.3,1.2l-.6.7c0-.4-.6-.3-.3-.9C40.21,13.2,40.41,13.6,40.61,13.6Zm11.1,27.7c-.3-.4-.4.6-.8,0C51.21,40.7,51.91,40.5,51.71,41.3Zm-7.1-21.1c-.3,0-.7.3-1,0C44,19.5,44.31,20,44.61,20.2Zm19.8,48c-.3.2-.5.5-.7,0,.1-.6.5-.8.7,0ZM46.81,23.9c-.3-.3-.7,0-.9-.7C46.21,22.7,46.91,23.4,46.81,23.9Zm6.9,17.8a3.08,3.08,0,0,1,1.2.5c-.4.6-1.5.6-1.2-.5Zm-9.2-31.3c-.4.5,0,.2.1.6-.3.6-.4-.4-.6,0,.2.9.5.6.7,1.1,0,.3.2,1.4-.3,1.1.3-.5-.3-.3-.3-.9-.5.9-.7-.3-1.1.1-.1-.8-.3-1-.7-1.1-.2.2.1.6,0,.8-.6-1-.1-1.6.4-2.8.2.3,0,.5,0,.8.2-.2.2.4.4.2a1.13,1.13,0,0,1-.1-.8c.4-.4.5.2.5-.7.2.1.4-.1.5.6-.2.3-.4.1-.3.4A2.76,2.76,0,0,1,44.51,10.4Zm1.8,5.8c.1-.6.3-.3.6-.5,0,1,.6.4,1,.8-.5.9.4.1.4,1-.4.3-.7-.5-1.1-.4-.8.8-.9,2.6-1.6,1.9C46.21,18.7,47.11,16.9,46.31,16.2Zm21.4,51.6c0,.4-.6.7-.2,1.1.6-.4.4-.9.6-1.3.1.4.3.2.4.6-.4,1.1-.8,1.3-1.2,2.3A3.38,3.38,0,0,0,66,68.7,1.61,1.61,0,0,1,67.71,67.8ZM55.91,42.1c-.2.6-.6.7-.9.3A1.61,1.61,0,0,1,55.91,42.1ZM42.81,8.3c-.2.3.1.7-.1.9C42.21,9.3,42.51,7.9,42.81,8.3Zm4.9,10.3-.9,1.1c-.1-.2-.2-.1-.3-.4C46.51,18.6,47.41,18.1,47.71,18.6Zm8.9,23.9c.2.4.4.3.2.8-.1-.3-.4.2-.5-.4ZM52,28.7c.4.8-.5,1.1-.7.7C51.61,28.9,51.71,29.3,52,28.7ZM45,11.8c.2,0,.4.8.1,1.1-.1-.4-.3-.8-.1-1.1Zm12.3,29.9a.19.19,0,0,0,0,.3c.2-.3.3-.2.5-.1-.4.4-.7.5-1,.1.1-.1.4-.5.5-.3Zm.1-3c-.2-.6-.7.4-.9-.2.3-.5,1-.6.9.2Zm-13.8-37c-.3.6.3.4.3-.1a1.38,1.38,0,0,1-.1,1.1c-.3-.2-.3.2-.8-.2.2-.4.4-.8.6-.8Zm30.3,68.1c-.3.5-.5,0-.8-.1C73.51,69.2,73.71,69.2,73.91,69.8ZM57.61,30.1c-.3.4-.5.2-.6-.3C57.21,29.4,57.41,29.6,57.61,30.1Zm6.4,15c.4.5-.3,1.3-.4.6.2-.4,0-.6.4-.6Zm-5-14c.5-.6,1.3-.2,1.3.7-.3-1-.8,0-1.2-.1.2-.3-.2,0-.1-.6Zm19.5,40.3c-.4.1-.8.3-1.2-.3C77.81,70.7,78.51,70.5,78.51,71.4ZM50.91,5.9c-.2-.3-.8-.5-.6-1.1C50.51,4.6,51,5.4,50.91,5.9Zm6.2,10.2c.2.8.5.5.8,1.1-.4.5-.6-.4-1.1.6-.1-.5-.3-.1-.4-.7A8.65,8.65,0,0,0,57.11,16.1Zm10.4,24.1c.3.5.4,1-.1,1.4-.3-.2-.3-1-.7-.9C67,40,67.21,40.7,67.51,40.2ZM57,8.4c-.4.5-.8.9-1.1.6C56.31,8.5,56.81,7.8,57,8.4Zm5.8,15.8c-.3.4-.4.2-.6-.3C62.51,23.5,62.71,23.7,62.81,24.2Zm-2-6.4c-.4.4-.8.6-1,0,.5-.5.8-.1,1,0Zm2,3.2c.4.7,1-.1,1.4.3-.4,1.1-1,.5-1.6.5-.1.2-.1.6-.3.1a4.05,4.05,0,0,1,.5-.9Zm6.5,12.6a1.08,1.08,0,0,1-1.4.2c.5-.6,1-.3,1.4-.2ZM59.21,7.4c-.3.3-.5.2-.8.2.2-.5.1-1,.4-1.5C59.21,6.5,59,6.9,59.21,7.4Zm-1.5.4c0-.8-.3-.5-.6-1.1.6,0,1.3-1.7,1.5-.4-.5.2-.6.8-.9,1.5Zm1.4,1c-.1-.7-.8.1-.6-.8.3,0,.7-.1.9.6a.61.61,0,0,0,0,.8c-.3.3-.7.4-.9.1.1-.1.7-.1.6-.7ZM64.21,19c-.2-.4-.5.2-.7-.4C63.81,18.1,64.41,18.6,64.21,19Zm-1-.2c.3-.3-.2-.8.2-1.1C63.71,18.1,63.51,19.1,63.21,18.8Zm1.7,3.4c.3-.5.5-.3.8-.5.2.7.4.6.7.8-.4.2-.3.3-.7.8-.1-.6-.2-.9-.6-.3a1.2,1.2,0,0,1-.2-.8Zm11.8,25.3c-.3.7-.7.3-.8,1l-.2-.3c-.1.1-.1.1-.2,0C75.91,47.4,76.41,47,76.71,47.5Zm9.6,24.2c.2.3.5-.1.4.5C86.41,72.9,86,72.1,86.31,71.7ZM60,8.2c-.3,0-.5-.2-.7-.6C59.61,6.8,60.11,7.9,60,8.2Zm15.3,33.7a.67.67,0,0,1-1,0c-.1-.1-.1-.1-.1-.2a.67.67,0,0,1,1,0C75.21,41.8,75.31,41.8,75.31,41.9Zm-12-32c-.2-.2-.1.2-.3.4-.4-.2-.3-1.1-.8-.5-.1.5.5.5.1,1.1-.4-.1-.5-.4-.6-1.1C62.31,9.1,63.31,8.9,63.31,9.9Zm9.9,25.9c.4.3.9-.6,1.2.4-.4.6-.7.3-1.1.6A1.21,1.21,0,0,1,73.21,35.8Zm-5.5-15.2c.2.1.3.3.5.7C67.91,22,67.41,21,67.71,20.6Zm-3-10.3-.3.6c-.2-.1-.3-.3-.5-.7C64.21,9.9,64.51,9.9,64.71,10.3Zm4.8,10.9c-.3,0-.7,1-.9.3Q69.06,20.9,69.51,21.2Zm2.3,3.2c-.4.7-.5-.2-.7.7a2.35,2.35,0,0,1-.2-.8C71.31,23.7,71.51,23.7,71.81,24.4Zm-2-.7c.3.7.8-.5,1.1.5-.4.8-1.1.3-1.1-.5Zm-4.1-11.3c-.3.8-.5,0-.7-.4C65.31,11.5,65.51,12.3,65.71,12.4Zm5,9.7c-.3.6-.5.1-.8.2.1-.8.6-.8.8-.2Zm1.2-1.1c-.6.6-.8.6-.9,1.4-.3,0-.2-.6-.2-1,.3-.5.5-.3.8-.5-.1-.2-.4-.1-.2-.5.6-.3.8.4,1.1,1-.1.2-.1.5-.4.7-.4-.4-.1-.7-.2-1.1Zm1.2,2a1.5,1.5,0,0,1-1.8,0c.2-1.5,1.2-.6,1.8,0Zm-7-15.5c-.5.2-.9-.3-1.3-.4.4-.2.8-.3,1.3.4Zm2.1,5.2c-.1.4-.2,1.2-.5.7-.1-.2.2-1.1.5-.7ZM68,9c.4.4-.4.7-.2,1.1s.6-.6.7.1c-.6.6-1,.3-1.5.1.2-.7.6-.3,1-1.3Zm5.6,16c.7-.9,1.2.7.8,1.6-.2-.7-.1-1-.8-1.6Zm.4-2-.5.7a.88.88,0,0,1-.1-.7c0,.5.4-.9.6,0Zm-2.8-8.2c.2.4,0,.7-.2,1.1-.1-.2-.2-.1-.3-.4ZM70.11,11a2.49,2.49,0,0,1-.3,1.7c-.4-.7-.1-1.7.3-1.7Zm3.6,10.2c.3-.7.7.3.7.8-.6.6-.4-.3-.7-.8Zm-2-10.1c.1.3.2.5.4.5-.5.3-.5-.4-.9.6,0-1-.4-.3-.7-.9.4-.5.7.4,1.2-.2Zm2.3,2c-.4-1.2-1.7.1-1.8-1.1.5.1,2-.6,1.8,1.1Zm-.5-.1c-.2.3.1.6-.3.9-.1-.2-.3-.1-.4-.5.3-.2.2-.8.7-.4Zm3.2.1c.1.6.4-.1.6.6-.3.3-.5.4-.8.2.1-.3,0-.6.2-.8Zm7,11.7c-.3,0-1.3.6-.9-.6.1.8.9,0,.8.6Zm7.5,17.8c.4.5-.2,1.4-.5.9.2-.3,0-.6.4-.9Zm-7.8-18.7c-.3.4-.4,0-.6-.3.3-.3.4-1.3.6-1A2.85,2.85,0,0,0,83.41,23.9Zm.4-1.3c.4.5-.1,1.6-.4,1C83.51,23.3,83.41,22.9,83.81,22.6Zm-2.9-8c.2,1,.6-.2.8.6a1.4,1.4,0,0,1-1.4.2Zm3,6.7-.4.6-.2-.5c.3-.6.5-.2.6-.1Zm1.3,3.4c.6-.7.3.6.8.8-.2.2-.8-.2-.8-.8Zm1.1,1,.3.7c-.3.5-.9.6-.7-.1.2.4.4-.4.4-.6Zm7.8,17c-.2.1-.4-.3-.6-.6a6.32,6.32,0,0,1,3.8.9c-.5,1.1-.7-.7-1.1.1.2.4.4.3.2.8-.4,0-.2-.7-.5-1.2-.5.7-.8-.5-1.2.3.2.2.5,0,.7.7-.2.4-.4,0-.6.5-.3-.3.2-1.2-.3-1-.3.3.2.8-.2,1.1-.2.1-.4-.1-.5-.4s.4-.7.3-1.2Zm-8.6-20.2c.3.9.8.3,1.2.8-.3.6,0,1.2-.6,1.3-.4-.5,0-.9,0-1.3-.3.1-.6-.1-.9.3C84.91,23.3,85.21,22.9,85.51,22.5ZM83,15.4c-.3.5-.7,1.1-1,.5C82.31,15.7,82.71,14.9,83,15.4Zm5.4,13.8-.4.6-.2-.5C88,28.9,88.21,28.7,88.41,29.2Zm3.1-3.3c.2-.1.3-.1.4.2-.8.7-.9-1.3-1.2-1.6l-.5.7a1.51,1.51,0,0,0-2-.8,2.63,2.63,0,0,1-.7,1.5c.1-1.2-.4.4-.7-.4a6.52,6.52,0,0,0,1.6-2.1c.4,1.5,1.7.1,2.4.1-.1.3-.6.5-.5.9.4-.4.7-.2,1.1-.6-.1-.2-.4-.1-.2-.5.3.6,1.2-.3,1.1.7-.4-.5-1.2.6-.9,1.4.2-1.1,1.3-.3,1.3.2-.4-.2-1.3-.8-1.2.3Zm.5-1.5a1,1,0,0,1,.7-.7c-.2.5.4.2.5.7C92.81,24.9,92.41,24.6,92,24.4Zm-9.1-8.7a1.25,1.25,0,0,1,1.3.4C83.81,16.4,83,16.6,82.91,15.7ZM86,21.8c-.2-.2-.4.3-.5-.4C85.81,20.6,86.31,21.5,86,21.8Zm1.7.8c-.3.4-1,.5-.8-.3C87.21,22.6,87.51,22.3,87.71,22.6Zm-2.6-6.5c-.1.5-.6.7-.8.2C84.61,15.8,84.91,15.9,85.11,16.1Zm13.2,27.6c-.2.7-.6,0-.6,1C97.31,44.2,98,43.2,98.31,43.7Zm1,0c-.1.7-.5.4-.9,1.1l-.2-.5c.4-.4.8-1.1,1.1-.6Zm-9.1-20.5c-.2.1-1,.5-.8-.3C89.61,23.1,89.91,22.7,90.21,23.2ZM89,18c-.3.4-.5.5-.7,0,.3-.4.5-.5.7,0Zm4.8,7.5c.2.1.5,0,.7.1-.4.5-.4,1.1-.8.8.1-.3-.3-.6.1-.9Zm1.7,1.7c.1.3.3.5.4.5l-.2.3c0,.1.1.2,0,.3-.4-.8-.2.7-.5.9-.2-.3-.4.1-.6-.6.4-.4.5-.9.9-1.4Zm-.8-3c.1.3.3.6.2.8-.4-.4-.9.5-1.2-.5.4-.4.6.3,1-.3Zm22.7,51.1c.3.5,0,.8-.3,1.2a1.38,1.38,0,0,0-.3-.4C116.81,75.7,117.11,75.2,117.41,75.3Zm-13.9-31.4c.3-.3.6-.1.9.5-.3.5-.5,1.7-.9,1C103.81,44.7,104,44.2,103.51,43.9Zm-6-15.9c-.3,0-.4-.6-.3-1-.7.6-1.8.1-2-1.1a1.45,1.45,0,0,0,2.1.1l.1-.1a2.85,2.85,0,0,0,0,1.3c.1-.7.1-.7.5-.7.2.3,0,.5,0,.8.3-.8.2-.2.6-.2-.2-.7.4-.7.6-.2-.1.5-.4.3-.8,1-.5-.3-.5-.8-.8.1ZM92,13.4c.4.7.9-.7,1.2-.8.3.9-.3.7-.5,1.5-.1-.7-.4,0-.6.2a.94.94,0,0,1-.1-.9Zm5.6,11.7a6.73,6.73,0,0,0,1.1.7.76.76,0,0,1-.9.3c.3-.2-.6-.2-.2-1ZM95,16.5c0,.4-.5,1.1-.7.7.2-.2.6-1.1.7-.7Zm-.2-3.3c-.3.5-.4.1-.7.7.2.4.4.3.2.8-.3-.2-1,0-.9-.9.4-.4.9-1.2,1.4-.6Zm4.8,13.9c.1.8.8-.3.6.6-.2.1-.9.3-.6-.6ZM98.31,21c-.4.2-.7,0-1.1.1.1-.4,1.2-.9,1.1-.1Zm-2.7-6.4a1.42,1.42,0,0,0-.2.6c-.2-.4-.9-.3-.7-.9.2.5.6-.4.9.3Zm7.9,12.8a4.45,4.45,0,0,1-2.3.3c.1.4.3.8,0,1.1,0-1.3-.4-.4-.8-1.1.4-.6.7-.5.6-1.6.5,1.8,1.7.5,2.5,1.3ZM123.41,76c-.3-.3-.7.6-.9-.1.3-.2,1.1-.6.9.1ZM110,44.8c.1.5.3.6.6.1.3,1-.8,2-1.3,1.4A1.8,1.8,0,0,0,110,44.8ZM97.41,15.3c-.6.3-1.1-.2-1.6-.3l.3-.4C96.51,15.1,97,14.8,97.41,15.3Zm7.1,17.5c-.4-.1-1.3.1-1.2-.8C103.61,32.4,104.61,31.7,104.51,32.8Zm-.6-3.3c.4.8,1,.2,1.4.9a1.09,1.09,0,0,1-1.5-.1c-.1-.1-.2-.2-.2-.3C103.81,30.2,103.91,29.7,103.91,29.5Zm-5.8-14.4c-.2.2.2.5,0,.8-.2-.4-.5.2-.7-.4C97.71,15,98,14.7,98.11,15.1Zm1.7.7c-.4.6-.7.5-.9.2C99.21,15.9,99.51,15.4,99.81,15.8Zm4.4,11.7c.6-.6.6.2.9.9a2.51,2.51,0,0,0-.4.7l-.2-.3A.8.8,0,0,0,104.21,27.5Zm-5.1-14c.5.3,1-.4,1.4.5-.5.1-.4,1.1-.9,1.1-.4-.4.2-1.4-.2-1.3-.2.4,0,.8-.4,1a2.88,2.88,0,0,1,.1-1.3ZM101,16a2,2,0,0,1-.5.9c-.2-.8-.5-.1-.7-.7l.4-.3c.2.6.4-.1.8.1Zm6.3,12.3c-.4-.1-1.8,1.2-1.5-.2.5.7,1.1-.6,1.5.2Zm2.5,2.9c-.3.3-.5.4-.8.2.1-.4.6-.7.8-.2Zm.2-1.7c-.5-.4-2,.5-1.8-1.1.5.9,1.7.1,1.8,1.1Zm2.9,4.4c-.3.5-.5.4-.8.2a.43.43,0,0,1,.4-.4A.52.52,0,0,1,112.91,33.9Zm-.4-2.5c.4,1.4,1,.4,1.5,1-.4.9-1.3,0-1.9-.2.2-.1,0-.5.4-.8Zm.2-.6c.4.9.7-1.1,1.2-.3-.5.5-.3.3-.6,1-.2.1-.9.2-.6-.7Zm3.1.8c-.3.6-.6.6-.9.3.1-.5.7-1.1.9-.3Zm-5-12.6c-.4.8-.6.3-.9.2.3-.2.7-.6.9-.2Zm-.1-.7c-.2.5-.9.2-.7-.4.2.4.6-.4.7.4Zm1.2,1.9c-.2.3.2.7.1,1-.3.4-.5.5-.7,0,.4-.1.2-1.2.6-1Zm.3-3.3a2.3,2.3,0,0,0-.4,1.4c.3-.3.4.1.6.6-.5.4-1,1.2-1.4.6.7-.7.4-3.4,1.2-2.6Zm6.7,18c-.2.7-.8.3-.6-.3C118.51,34.9,118.81,34.2,118.91,34.9Zm-5.6-15.4c-.3.4-.5.5-.6.1C112.91,19.2,113.11,19,113.31,19.5Zm4.9,11.7c.4-.1,1.3-.2,1.3.7.4-.5.9.5,1.1-.6l.3.7c-.3.5-.5.1-.5.7-.5-.5-.8-.5-1,.5-.4-.4,0-.6-.1-1l-.5.7C118.41,31.9,118.91,31.5,118.21,31.2Zm3.2,1.5c.4,1-.8,1.5-1,.8.1-.3.1-.5.2-.8.5,0,.2,1.2.8,0Zm1.1-1c.4.6-.1,1.1-.4,1.7-.1-.3-.3.2-.4-.2.3-1,.5-.3.8-1.5Zm2,4c-.3.3-.6.6-.8,0,.2-.5.5-.5.8,0Zm23.1,41c.3-.3,1-.5.8.3-.2-.4-.6.1-.6.6a2.92,2.92,0,0,1-.2-.9Zm-18-42.8c.4,1-1.1,2-.9.7.4.5.4-.6.9-.7Zm19.5,42.7c.5-.2,1.6-.7,1.6.5-.6-.6-.4.8-.7,1.2a3.67,3.67,0,0,1-.1-1.8c-.3.8-.9,1-.8.1Zm2.9.3c-.2-.2-.5.2-.7-.1,0-1,1.1-.6.7.1Zm-21.5-55.7c-.3.3-.6.3-.9-.1C130,20.4,130.31,20.8,130.51,21.2Zm1.8-.7c.4-1.2.4,0,.7.1a2.27,2.27,0,0,1,.5-1.8c.4.8-.7,1.3-.3,2,.1-.2.1-.5.3-.7.1,0,.7.6.5,1-.5-.6-2.7,2-2-.3-.4-.1-1.3.5-1.2-.5a.8.8,0,0,1,1.1-.3A1,1,0,0,1,132.31,20.5ZM133,19a1.24,1.24,0,0,1-1.4.3C132.11,18.9,132.61,18.4,133,19Zm25.3,56.3c.4.5,1.4-.8,1.4.3C159.31,75.5,158.41,76.5,158.31,75.3Zm-23.6-56.7c.1.3.3.6.2.8-.4-.5-.6-.4-.9.4C133.81,18.9,134.31,18.9,134.71,18.6Zm1.6,2c.1.6.5-.3.6.6-.3.3-1,0-.6-.6Zm-.5-3.5a.92.92,0,0,1,.1,1c-.1-.2-.2-.5-.3-.4s-.2.3-.3.1ZM163,75.6c-.1.3-.1.5-.4.7-.2-.7-.4-.3-.6-.6C162.41,75.4,162.71,75,163,75.6Zm-23.4-54.8c-.1.3.4.4.4.5.1-.3.1-.5.2-.8.5-.1.6.8.1,1.5-.5-.2-1-.1-1.4-.5C139.21,21.2,139.41,20.8,139.61,20.8Zm25,56.3-.3-.7c.3-.7.7.3.3.7Zm-22.7-55.3c.3-.2.6-.3.8.3-.3.5-.6.3-.8,0v-.3Zm27,53.3c.2.3.4.1.6.6-.2.2,0,1.1-.4.8.2-.4,0-.8-.2-.5a1.41,1.41,0,0,1-.1.9c-.2-.3-.4.2-.5-.4.5-.4,0-1,.6-1.4Zm-24.1-54.5c.4.4,1.3-.1,1.3.7-.3-.3-.6.1-.8,0,.1.4.3.2.4.5-.3.3-.7.4-.7,1A7.84,7.84,0,0,1,144.81,20.6Zm25.9,54.8c-.2.3-.1.7-.4,1.1C170.11,76,170.31,74.9,170.71,75.4Zm-24.1-53.7a2.55,2.55,0,0,1,.1,2.1,1.38,1.38,0,0,0-.3-.4C146.61,22.9,146.11,22.2,146.61,21.7Zm24.9,54.6c-.3.4-.5.6-.7.1C171.11,75.9,171.31,75.8,171.51,76.3Zm-23.7-54.9c-.5.1-1,.3-1.5-.2.5-.1.7-.4,1.1-.3a.45.45,0,0,0,0,.5C147.61,21.2,147.81,21,147.81,21.4Zm.7.7a2.15,2.15,0,0,0,0,.8c-.6.6-1.1.4-1.6-.1.3-.4.1-.8.5-1.2.4.4.8.1,1.1.5Zm25.4,53.4a1.61,1.61,0,0,0-.6,1.3c-.2-.4-.6,0-.8-.3.6-1-.2-.6.1-1.3.4.8.9,0,1.3.3Zm-24.6-55c.2.3,0,.5.2.8a.75.75,0,0,0,.1-.5c.4.4.1.8-.2,1.1-.1-.2-.2-.5-.3-.4.1.2-.1.4-.2.6l-.2-.5c.5-.6.4-.4.6-1.1Zm1.1,2.4c.3-.4.6.1.9.1C150.91,23.7,150.31,23.8,150.41,22.9Zm2.1-1c.3-.1.6-.4.8,0-.3.7-.5.1-.8.2,0,.2.1.3,0,.5Zm2,1.4c-.3-.4-.6.2-.9-.4a.5.5,0,0,1,.9.4Zm-.2.3c.1.1.2.1.3-.1a.92.92,0,0,1,.1,1c-.1-.2-.3-.1-.4-.2.1-.3-.1-.5,0-.7Zm2.1.4a.93.93,0,0,1-1.2.4l-.3-.3c.6-.6,1,.2,1.5-.1Zm.4-1.6c-.3,1.1-.8.8-1.3.6.5-.7,1-1.1,1.3-.6Zm2.1,2.3c.1.3,0,.5.2.8-.4.5-.9.8-1.2,0a.91.91,0,0,0,1-.8Zm5.6-1.6c-.3.4.3.1.3.7-.2.5-.8-.1-.6-.6.2.4.2-.3.3-.1Zm38,3c.2.3.5.1.7.7a1.74,1.74,0,0,1-1.2.8l-.2-.5c.5-.2.4-.1.7-1Zm3,1.2c-.4-.8-1,.5-.8-.9.2.4.9.1.8.9ZM238.61,77c-.9,1,.9.4-.1,1.9-.3-.7-.2-.8-.6-.9C238,77.6,238.21,76.5,238.61,77Zm-1.1,1.8c-.1-.2-.2-.5-.4-.4-.2.3,0,1.5-.5,1.2,0-.4.2-.7,0-1.1.5-.1.5-1.4,1-1.5A1.68,1.68,0,0,1,237.51,78.8Zm-23-51.9c.3-.4.6-.1.8,0,0,.5-.4.3-.7,1C214.41,27.5,214.71,27.3,214.51,26.9ZM240,77c.2.6,0,1.1.1,1.6-.2-.3-.5.6-.8-.1A10.09,10.09,0,0,0,240,77Zm-23.6-49.3c-.4-.4-.4.7-.8.2C215.61,27.5,216.61,26.6,216.41,27.7Zm23.9,49.5c.2-.3.4-.3.5.1-.1.4-.2.6-.4.6a.82.82,0,0,0-.1-.7Zm3.3-51c-.3-.5-.7.4-1,0,.3-.8,1.1-.8,1,0Zm1.5-.2c-.5-.1-.9.2-1.4-.3.5-.6,1-.6,1.4.3Zm.7-.7-.4.6-.3-.5c.3-.6.5-.2.7-.1Zm28.3,27.6a1.4,1.4,0,0,1-.3,1.5c-.5.4-1.1.3-1.8.9-.1-.2-.3-.5-.1-.7A7.6,7.6,0,0,1,274.11,52.9Zm2.5.1a1.18,1.18,0,0,1,.1,1c-.6.1-1.3.6-1.9.5.6-.7,1.2-.9,1.8-1.5Zm-14-29.2c-.1.6-.8,1.2-1.1.8.3-.8.7-.6,1.1-.8Zm16.8,27.9c-.8.8-1.5,1-2,2.3l-.3-.7C277.71,53.1,278.41,51,279.41,51.7Zm-10.2-32.2c.2-.3.3-.4.5-.4.4.8-.4,1.4.2,2.2-.3.1-.7.8-1,0C269.51,21.5,269.71,20.4,269.21,19.5Zm17,33.2c.3.4-.1.8,0,1.3-.2-.3-.4.1-.6-.5.2-.5.4-.3.6-.8ZM283,39.6c.3.2.5-.9.6-1.2.4.3,0,.6.1,1,.1-.1.2,0,.3.2-.5.1-.9,0-.7,1-.2,0-.3-.6-.3-1Zm-3.1-15.3c-.2-.5-.4.4-.6-.2.2-.7.8-.4.6.2Zm2.5.2c-.5.5-.9.9-1.4.3.6.1,1-.8,1.4-.3Zm1.8.5c-.2.3-.5.6-.7-.1.3-.3.5-.3.7.1Zm0-3.1c.2.5.3.5.4,0,.4.5-.4,1.1-.5.6C284.11,22.3,284.21,22.1,284.21,21.9Zm15.2,6.8a.83.83,0,0,1-.6.9c-.1-.5.4-1.4.6-.9Z"/><path class="cls-111" d="M85.11,11.8c-.1.3.2.2,0,.5,1.2-1.4,2,0,3.1-.6a3.22,3.22,0,0,0-2.5-.7.66.66,0,0,0,.1.6C85.61,11.6,85.41,12,85.11,11.8Z"/><path class="cls-112" d="M12.21,54.5c.3.5,1,0,1.5.2C13.31,54.5,12.91,54.1,12.21,54.5Z"/><path class="cls-113" d="M33.11,56.3c-.3.2-.3.5-.4.7.1.2.4-.2.6-.3a1.7,1.7,0,0,0,.1.7C33.71,56.8,33.31,56.7,33.11,56.3Z"/><path class="cls-114" d="M23.81,30.1c-.4.1.5.3.2,1.1a1.93,1.93,0,0,0,.3-1C24.11,29.6,24,30.7,23.81,30.1Z"/><path class="cls-115" d="M27.51,41a.65.65,0,0,0-.2.9q.15-.6.6-.3C28.11,41.2,27.51,41.2,27.51,41Z"/><path class="cls-116" d="M27.11,37c0-.3.2-.5.1-.8a1,1,0,0,0-.5.8c.1.3.4-.3.5.1C27.31,37,27.21,36.9,27.11,37Z"/><path class="cls-117" d="M36.91,61.9c.2.8.3-.3.5-.5s0,.5.3.7c.7-.8,1.1-.5,1.6,0l.3-.9a1.55,1.55,0,0,1-2-.3C37.31,61.6,37,61.4,36.91,61.9Z"/><path class="cls-118" d="M27,33.1c1.1,0,1.8.5,3-.2-.1-.3-.3-.2-.2-.5-.3-.4-.3.2-.7.3.2-.8-1.3-.5-.8-1C28.21,31,27.31,32.4,27,33.1Z"/><path class="cls-119" d="M41.21,68.1c.2.7,1.3.8,2,.5C42.51,68.5,41.91,68.2,41.21,68.1Z"/><path class="cls-120" d="M25.61,4.3c-.2.5-.4.1-.9.6.4.5.6,0,1-.1S25.61,4.7,25.61,4.3Z"/><path class="cls-121" d="M29.31,33.7c.3-.1.6.4,1.1-.2C30.21,32.7,29.61,33.6,29.31,33.7Z"/><path class="cls-122" d="M41.21,59.6c-.3.2,0,.5-.2.8.2.3.5,0,.7,0C41.91,59.9,41.21,60.5,41.21,59.6Z"/><path class="cls-123" d="M28.41,14.9c.1-.1,0-.3,0-.5.2-.4.2,0,.5-.5-.2-.3-.3-.7-.7.1C28.41,14.4,28.51,14,28.41,14.9Z"/><path class="cls-124" d="M35.61,26.1c.5-.3.3.4.8.5a6.66,6.66,0,0,1,.6-1.2C36.51,25.8,35.81,25.6,35.61,26.1Z"/><path class="cls-125" d="M51.51,64c-.1-.6.5-.2.5-.9-.2-.5-.5.4-.6-.3,0,.7-.6.9-.3,1.9.3-.3.6-.4.8-.2C52.21,64.1,51.61,64.2,51.51,64Z"/><path class="cls-126" d="M53.11,64.9c.4.6,1-.5,1.3.6.4-.5-.2-.4,0-.8C54,64.8,53.61,64.6,53.11,64.9Z"/><path class="cls-127" d="M55.21,64.5c-.1-.3,0-.5-.2-.8a1.28,1.28,0,0,1-1.6-.4c-.1,1.3,1,.4,1.2,1.7.4-.7.7-.2.9.5.6-.1.6-.5,1.2-.9-.2-.2-.3-.2-.5-.4-.3.2,0,.5-.2.8-.1.1-.2,0-.3.1-.1-.3.3-.6-.1-1C55.41,63.9,55.31,64.1,55.21,64.5Z"/><path class="cls-128" d="M38.91,0c-.1.2,0,.3,0,.2.1.2.2.5,0,.7.1.2.3-.2.5-.4C39.31.2,39.11.2,38.91,0Z"/><path class="cls-129" d="M46.21,6c-.2.4.9,1.4,1.5.6-.1-.2-.7.3-.5-.4C47,5.7,46.51,6.9,46.21,6Z"/><path class="cls-130" d="M50.31,9.2c.3.4.3,1.5,1,.8.1-1.3-.9-.4-.7-1.7C50.21,8.5,50.81,9,50.31,9.2Z"/><path class="cls-131" d="M64.91,35.7c-.3.6.3.3.4.5.2-.2.2-.7.3-.4a.19.19,0,0,0,0-.3l-.1-.3c.1.3-.6,1.1-.3.4C65.11,35.4,65.11,36,64.91,35.7Z"/><path class="cls-132" d="M60.11,12.5c-.1.6.7.5,1,.8a2.49,2.49,0,0,0,.7,2,24.37,24.37,0,0,0-.1-2.7c-.3,1.6-.5-.3-1.1-.4C60.41,12.7,60.31,12.8,60.11,12.5Z"/><path class="cls-133" d="M62.71,16c0,.7,1,.5,1.4.9.3-.5-.6-.4-.2-1C63.61,16.1,63,16.6,62.71,16Z"/><path class="cls-134" d="M62.11,13.4c-.4.3,0,.6.1.4a1.1,1.1,0,0,1,0,.8c.1.2.3,0,.4.2-.1-.3-.1-1.4.3-.4.1-.3-.1-.5-.2-.8C62.51,13.8,62.31,13.8,62.11,13.4Z"/><path class="cls-135" d="M66.61,15c-.1-.2-.3,0-.4-.2-.4.3,0,.7-.4,1C66,15.8,66.11,15.4,66.61,15Z"/><path class="cls-136" d="M71.31,8.8c-.1.6-.1.2-.4.6.3.4-.3.7.1,1.1l.3-.4c-.1-.4-.2-.9.3-.6C71.91,9.1,71.41,9.4,71.31,8.8Z"/><path class="cls-137" d="M76.71,20.9c-.2-.2-.1.4.1.2a1.4,1.4,0,0,1-.3.9c.3.2.8-.8.5-1.2C76.91,21,76.81,21,76.71,20.9Z"/><path class="cls-138" d="M85.11,42.1c.1.2.2,0,.1-.1.3-.5.5.9.8,0-.2-.8-.6-.3-.9-.5C85.11,41.6,85.31,41.9,85.11,42.1Z"/><path class="cls-139" d="M81.11,9.4c-.3-.7-.7-.7-1-.5.3.9.8.8,1.1,1.5.3-1.1.9-.4,1.4-.7C82.41,9.7,81.31,8.5,81.11,9.4Z"/><path class="cls-140" d="M82.11,10.7c.5.2,1-.5,1.4.2.3-1.7,1.4.6,2.1-.1,0-.3-.1-.6,0-.8-.4.1-.9.8-1.2-.3-.6.5-1.2,0-1.7-.1-.1.2.1.5.2.8C82.71,10.6,82.51,10,82.11,10.7Z"/><path class="cls-141" d="M81.51,6.9A1.56,1.56,0,0,0,83,8.5a1.69,1.69,0,0,0,1-.3C83.21,7.9,81.91,8.4,81.51,6.9Z"/><path class="cls-142" d="M88.11,9.8a3.13,3.13,0,0,0,1,.5C89.21,9.6,88.41,9.6,88.11,9.8Z"/><path class="cls-143" d="M92.91,11.2a3.42,3.42,0,0,0,2.8.9c-.3-.9-.8,0-.8-1.1-.2,1.1-.7-.3-1.2.5-.3-.5.4-1.1-.2-1.1C93.61,11.2,93.41,11.3,92.91,11.2Z"/><path class="cls-144" d="M92.91,9.6c-.1.9.8.3,1.1.5.3-.6-.3-.2-.4-.9C93.21,9.8,93.31,10,92.91,9.6Z"/><path class="cls-145" d="M95.91,12.1a2.5,2.5,0,0,0,1.8.8C97.61,10.9,96.51,11.9,95.91,12.1Z"/><path class="cls-146" d="M105.51,15c.3.2.5,0,1,0l-.2-.5C106,15.2,105.81,14.4,105.51,15Z"/><path class="cls-147" d="M111,13.4l-.6.9c.4.3.6-1,1-.3C111.61,13.6,111,13.7,111,13.4Z"/><path class="cls-148" d="M116.21,14.9c0,1.5.6-.7.9.9a1.42,1.42,0,0,1,.2-.6C117,14.5,116.61,15.1,116.21,14.9Z"/><path class="cls-149" d="M124.91,15.7c-.2-.2-.1.4.1.2.1.4-.1.7-.2,1.1.3.1.7-.6.9.1.5-1.5.9-.4,1.4-.6s-.2-.7.3-.9c-.6.4-1-.4-1.6.2-.1-.3,0-.5-.2-.8a.68.68,0,0,1-.7.7Z"/><path class="cls-150" d="M139.71,18.4c.4.8,1.1-.7,1.5.2.1-.3-.1-.5-.2-.8C140.51,18.7,140.21,17.5,139.71,18.4Z"/><path class="cls-151" d="M149.41,18.7c-.1.6,1.1.8,1.2.3C150.21,18.9,149.71,19.2,149.41,18.7Z"/><path class="cls-152" d="M158.31,23.2l.3-1.2c-.2-.2-.5-.1-.8.2.1.6.4,0,.6.1C158.51,22.6,157.71,22.5,158.31,23.2Z"/><path class="cls-153" d="M193.91,23.6c-.1.8.6.3.9.8a.19.19,0,0,0,0-.3l-.2-.3C194.31,24.1,194.11,23.5,193.91,23.6Z"/><path class="cls-154" d="M222.71,82.8c.5.2,1.1,0,1.6.3.3-.9,1-.4,1.4-.3.1-.1,0-.3.1-.4-.1-.1,0-.2,0-.3C224.81,82.6,223.81,82.2,222.71,82.8Z"/><path class="cls-155" d="M247.81,21c.5-.4-.1-.9.4-1.2-.1-.1-.2,0-.3-.2l-.2.3C248.21,20.3,247.31,20.6,247.81,21Z"/><path class="cls-156" d="M251.91,22.3c.5,1,0-1.2.5-.7.2-.5-.4-.6-.5-.1A1.1,1.1,0,0,1,251.91,22.3Z"/></g></g></g></svg>