<svg xmlns="http://www.w3.org/2000/svg" xmlns:xlink="http://www.w3.org/1999/xlink" viewBox="0 0 245.59 206.2"><defs><style>.cls-1{fill:url(#Gradiente_sem_nome_11);}.cls-2{fill:url(#Gradiente_sem_nome_11-2);}.cls-3{fill:url(#Gradiente_sem_nome_11-3);}.cls-4{fill:url(#Gradiente_sem_nome_20);}.cls-5{fill:url(#Gradiente_sem_nome_17);}.cls-6{opacity:0.78;fill:url(#Gradiente_sem_nome_17-2);}.cls-7{fill:none;stroke:#994cc0;stroke-width:0.5px;}</style><linearGradient id="Gradiente_sem_nome_11" x1="7.4" y1="160.17" x2="248.59" y2="174.04" gradientUnits="userSpaceOnUse"><stop offset="0" stop-color="#994cc0"/><stop offset="1" stop-color="#7cbce7"/></linearGradient><linearGradient id="Gradiente_sem_nome_11-2" x1="6.94" y1="168.21" x2="248.13" y2="182.08" xlink:href="#Gradiente_sem_nome_11"/><linearGradient id="Gradiente_sem_nome_11-3" x1="11.8" y1="141.3" x2="248.34" y2="154.91" xlink:href="#Gradiente_sem_nome_11"/><linearGradient id="Gradiente_sem_nome_20" x1="74.79" y1="84.51" x2="136.21" y2="88.04" xlink:href="#Gradiente_sem_nome_11"/><linearGradient id="Gradiente_sem_nome_17" x1="72.96" y1="48.13" x2="80.05" y2="48.54" gradientUnits="userSpaceOnUse"><stop offset="0" stop-color="#994cc0"/><stop offset="1" stop-color="#636dff"/></linearGradient><linearGradient id="Gradiente_sem_nome_17-2" x1="87.76" y1="57.84" x2="198.55" y2="64.21" xlink:href="#Gradiente_sem_nome_17"/></defs><title>logo unevida</title><g id="Camada_2" data-name="Camada 2"><g id="Camada_7" data-name="Camada 7"><path class="cls-1" d="M175.5,169.42c0,1.33.78,4,3.44,4s3.83-2.74,3.83-4c0-1.57-1-2.74-3.67-2.74S175.5,168.17,175.5,169.42Z"/><path class="cls-2" d="M244.67,184.21a.8.8,0,0,0-.78.55s-4.62,13-6.34,13c-.71,0-1.72-9.32.31-18.55.24-1-2.19-2-4.07-2a2,2,0,0,0-1.95.86,5.39,5.39,0,0,1-.32.78c-.94-.86-2.5-1.41-5.24-1.41-6,0-10.23,5.06-11.59,10.37-1.92,4.76-5.7,13.5-7.58,13.5-.31,0-.47-.32-.47-.71,0-26,2.82-45.46,2.58-46.24s-1.33-1.18-2.35-1.18a2,2,0,0,0-2,.94c-1.33,4.46-3,13.85-3.84,23.79a7.65,7.65,0,0,0-.39,1.17c-.86-1.4-2.19-2.19-4.61-2.19-3.6,0-6.84,3.69-8.22,8.12-.57,1.56-4.21,11.29-5.87,11.29-.7,0-2.19-1.25-2.19-7.67,0-4.77.78-9.86.78-10.41s-1.33-1.25-2.89-1.25c-1.18,0-2.74.47-2.9,1.41a34.54,34.54,0,0,0-.7,7.36c0,8.29,1.8,14.55,7,14.55,1.84,0,4.35-4.89,6.16-9.06.42,2.76,2,5.23,5.58,5.23,3,0,5.87-6.11,7.74-11.12a77.77,77.77,0,0,0,.94,17.06c.79,2.74,2.35,3.84,3.92,3.84,2.54,0,6.22-7,8.85-12.9.45,4.42,2.47,6.95,6.17,6.95,3.29,0,7.12-7.36,9.7-13.3-.07,1.25-.15,2.42-.15,3.52,0,4.46,1.56,11.27,6.57,11.27,3.29,0,8.92-16.36,8.92-16.36A.86.86,0,0,0,244.67,184.21Zm-50.39,8.37c-2.66,0,.94-13.3,3.13-13.3,1.09,0,1.72,1.64,2,3.28C197.56,187.65,195.45,192.58,194.28,192.58Zm27.54,3.52c-.55,0-1.09-.62-1.09-2.34,0-7.67,4.22-13.15,6.1-13.15,1.49,0,1.72,3.6,1.72,5.16C226.44,190.62,223.78,196.1,221.82,196.1Z"/><path class="cls-3" d="M177.86,139.59a9.43,9.43,0,0,1,0-1c0-1.27,0-2.85-1.08-3.82a3.11,3.11,0,0,0-2.45-.7,3.42,3.42,0,0,0-2.5,1.35,5.79,5.79,0,0,0-.73,4.57c3.53,17.86-3.06,33.45-10.73,49.18l-.2.41a9.64,9.64,0,0,1-2.91,4v-.59c0-1.45.08-2.7.11-4,.38-12.17.15-26.48-4.41-40.23-1.63-4.92-4.39-10.66-11.29-11.41-6.38-.7-9.88,0-13.75,5.78a80.53,80.53,0,0,0-4.44,8.88l.09,0a3.18,3.18,0,0,0-.26.79s-4.62,12-8.91,12c-1.3,0-3.57-2.18-3.57-7.86a6.57,6.57,0,0,1,.08-1.29c4-.9,7.38-4.06,7.38-7.3,0-3.64-4.38-4.29-5.6-4.29-3.91,0-7,3.88-8.34,8.74h0s-6.16,15.56-8.84,15.56c-1.21,0,.33-17.42.33-20.83a4.88,4.88,0,0,0-5.19-5c-5.51,0-11.26,18.23-11.26,18.23s.48-10.53-.57-11.59a3.88,3.88,0,0,0-3.08-1c-1,0-3.08.57-3.08,1.46,0,.16,0,.47,0,.88a20.06,20.06,0,0,1-4,11.19c-1.87,2.65-5,6-6.71,6.84-1,.5-2.32-.73-2.13-1.81,0,0,.38-2.22.62-3.62.06-.37.67-3.13.78-3.49.85-3,1.57-4.55,2.54-8,4-14.24,9.07-28.41,14-42.11l.37-1.06c.71-2,2.37-6.6-1.9-8.19a3,3,0,0,0-2.54.13c-2.09,1.1-3,4.62-3.59,7.18a17,17,0,0,1-.48,1.74,83.51,83.51,0,0,1-8.12,16.18c-8.25,13.33-16.09,23.17-26.08,34.72-11.86,13.73-13.66,14.39-15.35,15.2a2.55,2.55,0,0,1-3.39-.47c-.84-1.1-1.13-2.55-.3-5.68A52.43,52.43,0,0,1,21,157.62c3.28-7.56,5.8-15,7.08-18.21,6.65-16.85,7.3-23.06,8.39-34.56.29-9.25-1.89-13.56-9.78-16.42s-16.57.3-25.48,9L0,100.31l2.38-1.19c1.28-.64,2.45-1.24,3.54-1.8,2.16-1.11,4-2.07,5.93-2.91,5-2.24,9.58-2.35,12.76-.33s5,6.15,5.08,11.63a36.84,36.84,0,0,1-.37,5l-.08.66c-1.41,12.08-3.34,17.41-7.33,28.62-.5,1.39-3.2,9-3.69,10.42-1.92,5.43-4.16,11.85-6.25,18.26-1.49,4.55-.52,8.25,2.79,10.68a8.55,8.55,0,0,0,4.67,1.34c2.54,0,5.44-2.35,7-3.37a41.11,41.11,0,0,0,6.47-5.17C44.06,161.83,52.74,149.47,60,138.69a21.18,21.18,0,0,1,1.71-2.21,10.69,10.69,0,0,1-.48,2.19,187.44,187.44,0,0,0-6.51,24.4c-.07.36-.15.75-.23,1.14-.59,2.81-1.4,6.66,2.17,8.52,3.28,1.71,6.28-1.62,8.9-4.2L73,160.47c.32,2.5.91,4.74,2,5.79a2.8,2.8,0,0,0,1.78.49c1.38,0,3-.57,3.25-1.62,1-3.65,7.29-19.7,9.56-19.7.81,0-1,11.19-1,17.83s2.35,10.37,5.26,10.37,7.31-8.59,9.94-14.51c.49,6.17,4.71,9.9,9.51,9.9,5.07,0,11-12.59,12.46-15.87l.09,0a20.63,20.63,0,0,1,6.65-8.45c2.39-1.87,4.57-2.66,6.49-2.34s3.67,1.73,5.28,4.22a31.86,31.86,0,0,1,3.86,10,144.27,144.27,0,0,1,3.64,41.46,7.91,7.91,0,0,1-.15,1.06c-.24,1.41-.65,3.77,1.91,4.64a3.52,3.52,0,0,0,1.06.18c1.67,0,2.76-1.46,3.52-2.48.2-.27.4-.54.61-.78a25.94,25.94,0,0,0,2.36-3.41l0-.08c7-11.37,12-24.46,15.57-41.17A54,54,0,0,0,177.86,139.59Zm-64.13,6.65c.56,0,.73,1.3.73,2.19,0,1.79-1.79,4-3.41,5.35C111.7,149.57,113.24,146.24,113.73,146.24Z"/><path class="cls-4" d="M76.65,52.17s.28,54.57,57.7,68.21C134.35,120.38,94.27,110.15,76.65,52.17Z"/><circle class="cls-5" cx="76.5" cy="48.33" r="3.55"/><path class="cls-6" d="M144.63,74.22c7.92-.68,12.5,4.34,18.46,13,15,12.17,29.77-4.67,34.69-10.42.59-.7-3.82,12.94-16.43,23.4-5.67,4.7-8.82,6.78-20.93,11a56.84,56.84,0,0,1-16.34,2.39c-31.41,0-56.16-25.16-56.16-56.57,0-21.43,10.14-31.84,15.44-38.89,2.79-3.48,14.36-11.28,14.38-11,.62,8.45,7,18.24,11.9,24.11,4.45,5.31,7.36,10.82,9.17,13.65C152.45,66.09,144.63,74.22,144.63,74.22Z"/><path class="cls-7" d="M144.63.25A56.71,56.71,0,0,0,87.92,57h0a56.71,56.71,0,0,0,56.71,56.71h0a56.71,56.71,0,1,0,0-113.42Z"/><path class="cls-7" d="M138.14,33.42a17.26,17.26,0,1,1-23.59,6.32A17.27,17.27,0,0,1,138.14,33.42Z"/><path class="cls-7" d="M168.26,50.81a17.26,17.26,0,1,0,6.32,23.58A17.25,17.25,0,0,0,168.26,50.81Z"/><path class="cls-7" d="M120.87,50.81a17.26,17.26,0,1,1-6.32,23.58A17.27,17.27,0,0,1,120.87,50.81Z"/><path class="cls-7" d="M151,33.42a17.26,17.26,0,1,0,23.59,6.32A17.27,17.27,0,0,0,151,33.42Z"/><path class="cls-7" d="M138.2,68a17.27,17.27,0,1,1-23.59,6.32A17.27,17.27,0,0,1,138.2,68Z"/><path class="cls-7" d="M161.9,74.21a17.27,17.27,0,1,1-17.27-17.27h0A17.27,17.27,0,0,1,161.9,74.21Z"/><path class="cls-7" d="M159.64,100.12a17.26,17.26,0,1,0-23.58,6.32A17.26,17.26,0,0,0,159.64,100.12Z"/><path class="cls-7" d="M151.06,68a17.27,17.27,0,1,0,23.58,6.32A17.27,17.27,0,0,0,151.06,68Z"/><path class="cls-7" d="M168.32,16a17.26,17.26,0,1,0,6.32,23.58A17.26,17.26,0,0,0,168.32,16Z"/><path class="cls-7" d="M161.9,39.68a17.27,17.27,0,0,0-17.27-17.27h0A17.27,17.27,0,1,0,161.9,39.68Z"/><path class="cls-7" d="M159.64,30.81a17.26,17.26,0,1,0-23.58,6.32,17.27,17.27,0,0,0,23.58-6.32Z"/><path class="cls-7" d="M120.93,16a17.26,17.26,0,1,1-6.32,23.58A17.27,17.27,0,0,1,120.93,16Z"/><path class="cls-7" d="M131.9,56.92a17.27,17.27,0,1,1-17.27-17.26A17.27,17.27,0,0,1,131.9,56.92Z"/><path class="cls-7" d="M114.75,91.58A17.27,17.27,0,1,0,97.49,74.31,17.27,17.27,0,0,0,114.75,91.58Z"/><path class="cls-7" d="M174.78,56.92a17.27,17.27,0,0,0,17.27-17.26h0a17.27,17.27,0,0,0-17.27-17.27h0a17.27,17.27,0,0,0-17.26,17.27h0a17.26,17.26,0,0,0,17.26,17.26Z"/><path class="cls-7" d="M99.74,48.4a17.26,17.26,0,1,0,6.32-23.59A17.26,17.26,0,0,0,99.74,48.4Z"/><path class="cls-7" d="M159.77,83.06a17.26,17.26,0,1,0,6.32-23.59,17.27,17.27,0,0,0-6.32,23.59Z"/><path class="cls-7" d="M144.63,5A51.93,51.93,0,1,0,196.55,57,51.93,51.93,0,0,0,144.63,5Z"/><path class="cls-7" d="M144.63,74.22A17.27,17.27,0,0,0,161.9,57h0a17.27,17.27,0,0,0-17.27-17.27h0a17.27,17.27,0,1,0,0,34.53Z"/><path class="cls-7" d="M191.92,57.05a17.27,17.27,0,0,0-17.26-17.27h0a17.27,17.27,0,0,0-17.27,17.27h0a17.27,17.27,0,0,0,17.27,17.26h0a17.26,17.26,0,0,0,17.26-17.26Z"/><path class="cls-7" d="M159.53,100.31a17.27,17.27,0,0,0-14.9-8.59h0a17.29,17.29,0,0,0-14.91,8.59"/><path class="cls-7" d="M129.16,83a17.21,17.21,0,0,0-14.57,8.7,17.13,17.13,0,0,0,15.11,8.54,17.13,17.13,0,0,0,14.83,8.6A17.25,17.25,0,0,0,129.16,83Z"/><path class="cls-7" d="M129.59,100.27a17.22,17.22,0,0,0-15-25.83h0A17.26,17.26,0,0,0,99.72,83"/><path class="cls-7" d="M114.47,91.7a17.26,17.26,0,0,0-14.09-25.94h-.71l0,.09"/><path class="cls-7" d="M99.61,82.86a17.25,17.25,0,1,0,0-34.49h0l0,.06"/><path class="cls-7" d="M99.57,65.6a17.26,17.26,0,0,0,.81-34.5h-.62"/><path class="cls-7" d="M99.65,65.83a17.14,17.14,0,0,0,.3-17h0l-.25-.42"/><path class="cls-7" d="M99.65,83.29a17.14,17.14,0,0,0,.3-17h0l-.25-.42"/><path class="cls-7" d="M99.65,48.37a17.14,17.14,0,0,0,.3-17l-.25-.42"/><path class="cls-7" d="M189.6,65.83a17.21,17.21,0,0,1-.3-17l.26-.42"/><path class="cls-7" d="M189.6,83.29a17.21,17.21,0,0,1-.3-17l.26-.42"/><path class="cls-7" d="M189.6,48.37a17.21,17.21,0,0,1-.3-17l.26-.42"/><path class="cls-7" d="M129.83,100.34a17.22,17.22,0,0,0-14.61-8.78l-.49,0"/><path class="cls-7" d="M145,109.07a17.22,17.22,0,0,0-14.61-8.78l-.49,0"/><path class="cls-7" d="M114.71,91.62a17.2,17.2,0,0,0-14.61-8.79h0l-.49,0"/><path class="cls-7" d="M174.8,22.44a17.18,17.18,0,0,1-14.91-8.26h0c-.08-.14-.16-.28-.23-.43"/><path class="cls-7" d="M175,22.91l-.23-.43a17.14,17.14,0,0,1,15.14,8.7A17.21,17.21,0,0,1,175,22.91Z"/><path class="cls-7" d="M159.68,13.72a17.33,17.33,0,0,1-8.8-2.3,17.21,17.21,0,0,1-6.11-6h0c-.08-.14-.16-.28-.23-.42"/><path class="cls-7" d="M174.76,91.58a17.18,17.18,0,0,0-14.91,8.26h0c-.08.14-.16.28-.23.43"/><path class="cls-7" d="M189.88,82.85A17.18,17.18,0,0,0,175,91.11l-.24.43"/><path class="cls-7" d="M159.64,100.31a17.18,17.18,0,0,0-14.91,8.26h0l-.24.43"/><path class="cls-7" d="M129.78,13.68a17.23,17.23,0,0,1-6.38,6.47,17.28,17.28,0,0,1-8.23,2.31h-.49"/><path class="cls-7" d="M144.9,5a17.23,17.23,0,0,1-6.38,6.47,17.25,17.25,0,0,1-8.23,2.31h-.48"/><path class="cls-7" d="M114.66,22.41a17.19,17.19,0,0,1-14.61,8.78h-.49"/><path class="cls-7" d="M129.72,13.61a17.23,17.23,0,0,0,29.81,0"/><path class="cls-7" d="M99.72,30.92a17.25,17.25,0,0,0,30.06-.4h0a17.22,17.22,0,0,0-.25-17"/><path class="cls-7" d="M114.63,22.28a17.23,17.23,0,0,0,29.86,0h0A17.28,17.28,0,0,0,144.5,5"/><path class="cls-7" d="M144.7,5a17.25,17.25,0,1,0,29.89,17.22h-.06"/><path class="cls-7" d="M159.67,13.62a17.26,17.26,0,0,0,29.47,18h0c.11-.18.21-.36.31-.54"/><path class="cls-7" d="M189.74,31.19a17.24,17.24,0,0,0-14.69,26.23h0a17.17,17.17,0,0,0,14.82,8.26"/><path class="cls-7" d="M189.76,48.42a17.25,17.25,0,0,0,0,34.49"/><path class="cls-7" d="M189.9,65.8A17.26,17.26,0,0,0,174.48,91h0l.36.61,0-.09"/><path class="cls-7" d="M174.74,91.76a17.26,17.26,0,0,0-30.28,16.55h0c.11.18.21.36.32.53"/><path class="cls-7" d="M159.87,100.27A17.24,17.24,0,0,1,189.74,83"/><path class="cls-7" d="M189.9,48.31a17.25,17.25,0,0,1-15.42-25.17h0c.12-.2.23-.41.36-.61l0,.09"/><path class="cls-7" d="M99.6,48.31A17.25,17.25,0,0,0,115,23.14h0l-.36-.61,0,.09"/></g></g></svg>